<?xml version="1.0" encoding="UTF-8"?>
<svg width="61px" height="61px" viewBox="0 0 61 61" version="1.1" xmlns="http://www.w3.org/2000/svg" xmlns:xlink="http://www.w3.org/1999/xlink">
    <!-- Generator: Sketch 51.3 (57544) - http://www.bohemiancoding.com/sketch -->
    <title>if_icon_sets_school_outline_hand_drawn_iconfinder-11_2087683</title>
    <desc>Created with Sketch.</desc>
    <defs></defs>
    <g id="home" stroke="none" stroke-width="1" fill="none" fill-rule="evenodd">
        <g id="Desktop-HD" transform="translate(-1369.000000, -561.000000)" fill="#FFFFFF" fill-rule="nonzero">
            <g id="if_icon_sets_school_outline_hand_drawn_iconfinder-11_2087683" transform="translate(1369.000000, 561.000000)">
                <path d="M21.1907219,61 C21.1897571,61 21.1887924,61 21.1887924,61 C20.9948737,61 1.84613031,60.9811874 0.839875795,59.3826014 C-0.181815031,57.7598966 -0.317847507,4.67564729 0.689371716,0.825823594 C0.754976086,0.573542198 0.870748416,0.262893628 1.17850982,0.0959923762 L1.34348541,0.00627089995 L1.55766424,0 C2.01014109,0 2.36324672,0.308236708 3.19970182,1.43361435 C7.90681177,7.77007388 36.8103388,56.3576366 35.9825667,59.0999305 C35.7828594,59.7636765 35.4104584,61 21.1907219,61 Z M2.10854759,58.4921397 C3.70138191,58.9730662 12.1315371,59.5181483 21.1887924,59.5181483 C21.1887924,59.5181483 21.1897572,59.5181483 21.1907219,59.5181483 C30.1186982,59.5181483 33.6574723,58.975478 34.5035751,58.5963323 C33.3294508,54.0576792 7.23340274,8.96780748 1.95032546,2.17936391 C1.0637023,10.0039459 1.57310055,54.5796075 2.10854759,58.4921397 Z" id="Shape"></path>
                <path d="M16.5650885,52 C16.5650885,52 16.5650885,52 16.5641202,52 C11.7812598,52 9.13519559,51.6350727 8.69854173,50.9152751 C7.95593976,49.6907092 7.71873304,31.9237288 8.4158301,29.7916337 C8.46133501,29.6546663 8.59784993,29.2370591 8.99868067,29.0665681 L9.13906831,29.0071836 L9.32883367,29 C11.2855464,29 21.2704936,45.9734311 22.5581867,48.9800109 C23.0180771,50.0522842 23.1826695,50.7189231 22.7411747,51.1705327 C22.518491,51.3975346 21.9288631,52 16.5650885,52 Z M9.96783935,50.0513263 C10.6765547,50.2634822 13.1735176,50.5287968 16.5641202,50.5287968 C16.5650885,50.5287968 16.5650885,50.5287968 16.5650885,50.5287968 C19.2489122,50.5287968 20.8173805,50.3554324 21.4486407,50.1988297 C20.6450427,47.5677132 12.3350649,34.0778536 9.67931865,30.9960853 C9.2397602,34.5850164 9.52731278,47.8406904 9.96783935,50.0513263 Z" id="Shape"></path>
                <path d="M14.6118111,48 C12.8759456,48 12.0402267,47.7008598 11.6996804,47.0740898 C11.1363985,46.0337302 10.7433898,38.8676275 11.1999058,37.9456468 C11.7779141,36.7702075 13.9620121,36.9593191 14.6799204,37.1184676 C15.0618844,37.2029539 15.3076299,37.6022986 15.228476,38.0104851 C15.1493221,38.4186716 14.7738007,38.6794983 14.392757,38.5959944 C13.6343513,38.4284956 12.7250007,38.5193674 12.4590066,38.6706567 C12.2776887,39.7704514 12.5565684,45.5376193 12.9265674,46.324029 C13.1898005,46.5101934 14.5390999,46.9021702 19.2119467,46.324029 C19.5966719,46.2749091 19.9501037,47.1993457 19.9952031,47.6134265 C20.0403025,48.0275073 19.7623431,47.9518625 19.3739363,48 C17.3113305,48.2549322 15.7632256,48 14.6118111,48 Z" id="Shape"></path>
                <path d="M56.7190302,48 C56.5568258,48 56.4013003,47.9970934 56.2543621,47.9946713 C51.7069122,47.9118338 47.3789154,47.854671 43.0518728,47.7979927 C38.6981141,47.74083 34.3462637,47.6836673 29.7720978,47.6003453 C29.3675407,47.5925945 29.0450401,47.253978 29.0526733,46.8426971 C29.0603064,46.4367449 29.3866237,46.1121769 29.7854558,46.1121769 C34.3701173,46.1959833 38.7200595,46.253146 43.0700015,46.3098244 C47.3999066,46.3669871 51.7307659,46.4236654 56.2810782,46.5065029 C57.2361763,46.5244268 58.0653274,46.5031118 58.6263639,46.0719693 C59.4268907,45.4586811 59.5118095,44.1347345 59.5289841,42.9425527 C59.5442504,41.881167 59.5614249,40.6783277 59.0395082,39.7792259 C58.8248258,39.4081527 57.8554156,39.326284 57.3354072,39.2822009 C56.7820037,39.2352112 56.4175208,39.2042077 56.1379566,38.9518198 C55.6780593,38.5376323 55.7410327,37.8628215 55.8068687,37.148772 C55.8335846,36.8687718 55.8603006,36.5795672 55.8450343,36.3843419 C55.4128071,30.7877242 52.5303384,25.4890309 48.1345973,22.2113788 C43.1635075,18.503553 36.4520592,17.4755929 30.6270106,19.5286064 C26.6806714,20.91892 23.2877356,23.4573322 19.279377,28.0158168 C19.0093543,28.3224609 18.5456403,28.3481356 18.245085,28.0754017 C17.9426214,27.8016989 17.9168595,27.3313175 18.185928,27.0246735 C20.9663034,23.8623156 24.8035031,19.932047 30.146122,18.1227911 C35.164996,16.4231701 43.6482125,17.0178067 49.0028682,21.0119306 C53.7363762,24.5424551 56.8411604,30.2456473 57.3067827,36.2685632 C57.3315904,36.5921623 57.2981953,36.9462805 57.2667086,37.2887724 C57.2523965,37.4350701 57.2352218,37.6259356 57.2285429,37.7809531 C57.2981954,37.7867663 57.375481,37.792095 57.4575374,37.798877 C58.3515703,37.8749325 59.7026381,37.9892579 60.3027946,39.0244845 C61.0327147,40.2830331 61.0117235,41.7692638 60.9945489,42.9638677 C60.9783284,44.0795096 60.9497042,46.1562602 59.5099009,47.2597913 C58.6549882,47.9152248 57.5968426,48 56.7190302,48 Z" id="Shape"></path>
                <path d="M49.8083284,39 L49.1630828,38.9889405 C44.978964,38.9153709 40.9573444,38.8543032 36.9347746,38.7932356 C32.9122047,38.732168 28.8886846,38.6706196 24.7045658,38.5975308 C24.3016436,38.5903181 23.9804462,38.2542059 23.9870982,37.8459665 C23.9937502,37.4425357 24.3196991,37.120368 24.7169195,37.120368 C24.7207207,37.120368 24.7254721,37.120368 24.7292732,37.120368 C28.9133921,37.1939376 32.9350116,37.2550053 36.9575815,37.3160729 C40.7653861,37.3742554 44.5741411,37.4319571 48.5197376,37.5002374 C48.7316519,34.3742495 47.3727398,31.1136243 44.8801339,28.8550848 C42.4217384,26.6287621 38.9398825,25.3963507 35.2613171,25.4800181 C32.273611,25.5473367 29.4341499,26.4792186 27.2665427,28.1030397 C24.8794188,29.8908298 23.8103446,31.6300543 23.4530363,34.30645 C23.3988698,34.7098808 23.0387106,35.0012742 22.6319873,34.9392449 C22.2328662,34.8849092 21.9525312,34.5127334 22.0066977,34.1083409 C22.4181725,31.0280334 23.6896581,28.9440415 26.3979793,26.915347 C28.8060096,25.111689 31.9419605,24.0773867 35.2290073,24.0028553 C39.2420742,23.9292857 43.1221008,25.2799856 45.8532291,27.7549064 C48.8770461,30.4938122 50.4269661,34.555048 49.8976556,38.3532603 L49.8083284,39 Z" id="Shape"></path>
                <path d="M4.33318052,26 C4.32710486,26 4.32102912,26 4.31495346,25.9993832 L1.64859241,25.895758 C1.28057904,25.8815713 0.990681688,25.4460992 1.00022922,24.9230393 C1.01064473,24.3999794 1.29620222,23.965741 1.68504654,24.0021332 L4.35140759,24.1057583 C4.71942096,24.119945 5.00931831,24.5554171 4.99977078,25.078477 C4.98935536,25.5929015 4.69338226,26 4.33318052,26 Z" id="Shape"></path>
                <path d="M3.49988539,18 C3.49532865,18 3.49077184,18 3.48621509,17.9993832 L1.48644431,17.895758 C1.21043428,17.8815713 0.993011266,17.4460992 1.00017191,16.9230393 C1.00798355,16.3999794 1.22215167,15.965741 1.51378491,16.0021332 L3.51355569,16.1057583 C3.78956572,16.119945 4.00698873,16.5554171 3.99982809,17.078477 C3.99201652,17.5929015 3.77003669,18 3.49988539,18 Z" id="Shape"></path>
                <path d="M4.34540668,34 C4.33774052,34 4.33007444,34 4.32240827,33.9993931 L1.6315949,33.8634462 C1.27043476,33.8452391 0.987639513,33.4131222 1.00041646,32.8984662 C1.01404514,32.3844171 1.31217264,31.9887146 1.67759173,32.0002457 L4.3684051,32.1361926 C4.72956524,32.1543997 5.01236049,32.5865166 4.99958354,33.1011726 C4.98680668,33.6042975 4.69634527,34 4.34540668,34 Z" id="Shape"></path>
                <path d="M3.49988539,42 C3.49532865,42 3.49077184,42 3.48621509,41.9993832 L1.48644431,41.895758 C1.21043428,41.8815713 0.993011266,41.4460992 1.00017191,40.9230393 C1.00798355,40.3999794 1.22215167,39.965741 1.51378491,40.0021332 L3.51355569,40.1057583 C3.78956572,40.119945 4.00698873,40.5554171 3.99982809,41.078477 C3.99201652,41.5929015 3.77003669,42 3.49988539,42 Z" id="Shape"></path>
                <path d="M4.34540668,50 C4.33774052,50 4.33007444,50 4.32240827,49.9993931 L1.6315949,49.8634462 C1.27043476,49.8452391 0.987639513,49.4131222 1.00041646,48.8984662 C1.01404514,48.3844171 1.31217264,47.9887146 1.67759173,48.0002457 L4.3684051,48.1361926 C4.72956524,48.1543997 5.01236049,48.5865166 4.99958354,49.1011726 C4.98680668,49.6042975 4.69634527,50 4.34540668,50 Z" id="Shape"></path>
                <path d="M43.5,47 C43.2239583,47 43,46.7480469 43,46.4375 L43,44.5625 C43,44.2519531 43.2239583,44 43.5,44 C43.7760417,44 44,44.2519531 44,44.5625 L44,46.4375 C44,46.7480469 43.7760417,47 43.5,47 Z" id="Shape"></path>
                <path d="M53.5,32 C53.2239583,32 53,31.7480469 53,31.4375 L53,29.5625 C53,29.2519531 53.2239583,29 53.5,29 C53.7760417,29 54,29.2519531 54,29.5625 L54,31.4375 C54,31.7480469 53.7760417,32 53.5,32 Z" id="Shape" transform="translate(53.500000, 30.500000) rotate(-295.000000) translate(-53.500000, -30.500000) "></path>
                <path d="M45.0668777,22.0736865 C44.790836,22.0736865 44.5668777,21.8217334 44.5668777,21.5111865 L44.5668777,19.6361865 C44.5668777,19.3256396 44.790836,19.0736865 45.0668777,19.0736865 C45.3429194,19.0736865 45.5668777,19.3256396 45.5668777,19.6361865 L45.5668777,21.5111865 C45.5668777,21.8217334 45.3429194,22.0736865 45.0668777,22.0736865 Z" id="Shape" transform="translate(45.066878, 20.573687) rotate(24.000000) translate(-45.066878, -20.573687) "></path>
                <path d="M28.5,22 C28.2239583,22 28,21.7480469 28,21.4375 L28,19.5625 C28,19.2519531 28.2239583,19 28.5,19 C28.7760417,19 29,19.2519531 29,19.5625 L29,21.4375 C29,21.7480469 28.7760417,22 28.5,22 Z" id="Shape" transform="translate(28.500000, 20.500000) rotate(-30.000000) translate(-28.500000, -20.500000) "></path>
                <path d="M30.5,47 C30.2239583,47 30,46.7480469 30,46.4375 L30,44.5625 C30,44.2519531 30.2239583,44 30.5,44 C30.7760417,44 31,44.2519531 31,44.5625 L31,46.4375 C31,46.7480469 30.7760417,47 30.5,47 Z" id="Shape"></path>
                <path d="M56.5,47 C56.2239583,47 56,46.7480469 56,46.4375 L56,44.5625 C56,44.2519531 56.2239583,44 56.5,44 C56.7760417,44 57,44.2519531 57,44.5625 L57,46.4375 C57,46.7480469 56.7760417,47 56.5,47 Z" id="Shape"></path>
                <path d="M49.0520648,47 L50.0260324,46.989946 L49.0520648,46.9793892 L49.000069,43.7817016 C48.9937281,43.3549076 49.4249116,43.005027 49.9626229,43 C49.9664275,43 49.9702321,43 49.9740367,43 C50.5066753,43 50.9416634,43.3393238 50.9480043,43.762599 L51,46.9587786 L49.0520648,47 Z" id="Shape"></path>
                <path d="M54.0520648,38 L55.0260324,37.994973 L54.0520648,37.9896946 L54.000069,36.3908508 C53.9937281,36.1774538 54.4249116,36.0025135 54.9626229,36 C54.9664275,36 54.9702321,36 54.9740367,36 C55.5066753,36 55.9416634,36.1696619 55.9480043,36.3812995 L56,37.9793893 L54.0520648,38 Z" id="Shape" transform="translate(55.000000, 37.000000) rotate(-90.000000) translate(-55.000000, -37.000000) "></path>
                <path d="M49.8518331,27.201358 L50.8258007,27.1938175 L49.8518331,27.1859 L49.7998373,24.7876343 C49.7934964,24.4675387 50.2246799,24.2051283 50.7623912,24.201358 C50.7661958,24.201358 50.7700004,24.201358 50.773805,24.201358 C51.3064436,24.201358 51.7414317,24.4558509 51.7477726,24.7733073 L51.7997683,27.170442 L49.8518331,27.201358 Z" id="Shape" transform="translate(50.799768, 25.701358) rotate(-127.000000) translate(-50.799768, -25.701358) "></path>
                <path d="M36.0520648,20 L37.0260324,19.994973 L36.0520648,19.9896946 L36.000069,18.3908508 C35.9937281,18.1774538 36.4249116,18.0025135 36.9626229,18 C36.9664275,18 36.9702321,18 36.9740367,18 C37.5066753,18 37.9416634,18.1696619 37.9480043,18.3812995 L38,19.9793893 L36.0520648,20 Z" id="Shape" transform="translate(37.000000, 19.000000) rotate(-180.000000) translate(-37.000000, -19.000000) "></path>
                <path d="M23.0520648,26 L24.0260324,25.9924595 L23.0520648,25.9845419 L23.000069,23.5862762 C22.9937281,23.2661807 23.4249116,23.0037703 23.9626229,23 C23.9664275,23 23.9702321,23 23.9740367,23 C24.5066753,23 24.9416634,23.2544929 24.9480043,23.5719493 L25,25.969084 L23.0520648,26 Z" id="Shape" transform="translate(24.000000, 24.500000) rotate(-225.000000) translate(-24.000000, -24.500000) "></path>
                <path d="M36.9600163,47 C36.9512697,47 36.9412737,47 36.9312776,46.9994703 C36.4014855,46.9862288 35.9853988,46.6117584 36.0003928,46.1626059 L36.0803615,43.7907839 C36.0953556,43.3495762 36.5214384,43 37.0399849,43 C37.0487314,43 37.057478,43 37.0674741,43.0005297 C37.5972662,43.0127119 38.0146025,43.3871822 37.9996083,43.8363348 L37.9196397,46.2102755 C37.9033961,46.6514831 37.4773133,47 36.9600163,47 Z" id="Shape"></path>
                <path d="M17.0267399,48 C17.0191813,48 17.0116228,48 17.0040643,48 C16.4699285,47.9898988 16.0479107,47.6348402 16.0592485,47.2065476 C16.0743656,46.6641109 16.0542094,46.0893503 16.0327937,45.5150948 C16.0113778,44.9186164 15.9899621,44.3226433 16.0050791,43.758994 C16.0164169,43.3317116 16.4006419,42.9867542 16.9939863,43.0003909 C17.5281222,43.009987 17.9513996,43.3650457 17.9400618,43.7933383 C17.9249447,44.3312294 17.9463605,44.9004343 17.9665166,45.4696393 C17.9891922,46.0716733 18.010608,46.6737072 17.9942312,47.241902 C17.9816337,47.6641338 17.5507977,48 17.0267399,48 Z" id="Shape"></path>
            </g>
        </g>
    </g>
</svg>