<?xml version="1.0" encoding="UTF-8"?>
<svg width="54px" height="58px" viewBox="0 0 54 58" version="1.1" xmlns="http://www.w3.org/2000/svg" xmlns:xlink="http://www.w3.org/1999/xlink">
    <!-- Generator: Sketch 51.3 (57544) - http://www.bohemiancoding.com/sketch -->
    <title>Group 7</title>
    <desc>Created with Sketch.</desc>
    <defs></defs>
    <g id="home" stroke="none" stroke-width="1" fill="none" fill-rule="evenodd">
        <g id="Desktop-HD" transform="translate(-1368.000000, -1058.000000)" stroke="#FFFFFF">
            <g id="Group-7" transform="translate(1345.000000, 1038.000000)">
                <g id="Group-6" transform="translate(47.517705, 32.322408)">
                    <path d="M28.7491422,-0.170543033 L28.7491422,43.5799588 C28.7491422,44.1322435 28.301427,44.5799588 27.7491422,44.5799588 L0.934318559,44.5799588 C0.382033809,44.5799588 -0.065681441,44.1322435 -0.065681441,43.5799588 C-0.065681441,43.3955111 -0.014668034,43.214657 0.0817173066,43.0573967 L26.896541,-0.693105091 C27.185144,-1.16398376 27.8008256,-1.31174734 28.2717043,-1.02314429 C28.5683261,-0.841343834 28.7491422,-0.51844516 28.7491422,-0.170543033 Z" id="Triangle-3"></path>
                    <path d="M22.5174353,23.6900548 L22.5174353,34.2323983 C22.5174353,34.784683 22.06972,35.2323983 21.5174353,35.2323983 L14.2554761,35.2323983 C13.7031914,35.2323983 13.2554761,34.784683 13.2554761,34.2323983 C13.2554761,34.0297953 13.3170167,33.831971 13.4319486,33.6651219 L20.6939078,23.1227784 C21.0072059,22.6679568 21.62989,22.5532293 22.0847117,22.8665274 C22.3556322,23.0531476 22.5174353,23.3610791 22.5174353,23.6900548 Z" id="Triangle-3"></path>
                    <path d="M26.25,19.5 L27.75,19.5" id="Line-2" stroke-linecap="square"></path>
                    <path d="M26.25,9.5 L27.75,9.5" id="Line-2" stroke-linecap="square"></path>
                    <path d="M27.125,24.5 L27.875,24.5" id="Line-2" stroke-linecap="square"></path>
                    <path d="M27.125,14.5 L27.875,14.5" id="Line-2" stroke-linecap="square"></path>
                    <path d="M27.125,34.5 L27.875,34.5" id="Line-2" stroke-linecap="square"></path>
                    <path d="M26.25,29.5 L27.75,29.5" id="Line-2" stroke-linecap="square"></path>
                    <path d="M26.25,39.5 L27.75,39.5" id="Line-2" stroke-linecap="square"></path>
                </g>
                <g id="Group-5" transform="translate(42.621320, 42.449747) rotate(-315.000000) translate(-42.621320, -42.449747) translate(13.121320, 12.949747)">
                    <path d="M42.033076,60.3450018 L42.0486766,60.914837 L42.1299401,60.8313182 L43.3236276,60.8313182 L43.3236276,59.8313182 L42.019055,59.8313182 L42.033076,60.3450018 Z M33.2368818,60.4011534 L32.6860274,60.4011534 L33.1835947,60.9504156 C33.2016065,60.7684894 33.2193706,60.5853479 33.2368818,60.4011534 Z M32.8969763,14.1238081 C32.8325003,13.9073289 32.7661174,13.6906162 32.6978278,13.4736703 L32.2208898,14.1237971 L32.8969763,14.1238081 Z" id="Rectangle-17" transform="translate(37.807031, 37.477558) rotate(-45.000000) translate(-37.807031, -37.477558) "></path>
                    <path d="M25.4959292,14.3141184 C23.2643322,13.4029804 21.2559858,13.0533248 19.4692524,13.2560755 C17.923502,13.4314805 17.4989009,13.535532 16.7186441,13.8321786 C16.1099302,14.0636061 15.5525469,14.1603891 14.1377166,14.2302763 C12.7327602,14.2996758 8.16801612,14.3431586 0.421606187,14.3613167 C-0.405445363,14.3632554 -1.07487852,15.0342545 -1.0748847,15.8613097 L-1.07493963,21.3294764 C-1.07493707,22.1579035 -0.403362111,22.8294743 0.425064619,22.8294717 L27.1678834,22.8300696 C31.0625725,22.623481 33.737938,22.3305708 35.1708942,21.9583608 C36.2912292,21.6673541 36.2584374,21.7293213 35.7955757,21.4649818 C33.8257272,20.3400044 30.3972419,17.9589927 25.4959292,14.3141184 Z" id="Rectangle-18" transform="translate(17.526234, 18.014886) rotate(-45.000000) translate(-17.526234, -18.014886) "></path>
                </g>
            </g>
        </g>
    </g>
</svg>