<?xml version="1.0" encoding="UTF-8"?>
<svg width="60px" height="60px" viewBox="0 0 60 63" version="1.1" xmlns="http://www.w3.org/2000/svg" xmlns:xlink="http://www.w3.org/1999/xlink">
    <!-- Generator: Sketch 51.3 (57544) - http://www.bohemiancoding.com/sketch -->
    <title>if_icon_sets_school_outline_hand_drawn_iconfinder-26_2087684</title>
    <desc>Created with Sketch.</desc>
    <defs></defs>
    <g id="home" stroke="none" stroke-width="1" fill="none" fill-rule="evenodd">
        <g id="Desktop-HD" transform="translate(-619.000000, -977.000000)" fill="#FFFFFF">
            <g id="process" transform="translate(-6.000000, 551.000000)">
                <g id="if_icon_sets_school_outline_hand_drawn_iconfinder-26_2087684" transform="translate(625.000000, 426.000000)">
                    <path d="M12.609375,62.0800781 C11.8481445,62.0800781 11.0585937,62.0292968 10.2890625,61.8408203 C8.8222656,61.4814453 7.6416016,60.6367187 7.0493164,59.5214844 C6.5019531,58.4892578 6.4804687,57.3056641 6.4628906,56.3544922 L5.847168,23.2675781 C5.8393555,22.8535156 6.1689453,22.5117187 6.5830078,22.5039062 C7.0126953,22.4824218 7.3393555,22.8261718 7.347168,23.2402343 L7.9628907,56.3271484 C7.9780274,57.1591797 7.9951173,58.102539 8.3745118,58.8183593 C8.7661134,59.555664 9.5937501,60.1259765 10.6455079,60.383789 C11.6767579,60.6367187 12.8027345,60.5898437 13.8930665,60.5449218 C15.2968751,60.4873046 16.732422,60.3583984 17.513672,59.4794921 C18.2216798,58.6855468 18.2734376,57.4267577 18.2651368,56.0976562 L18.0737305,22.9169921 C18.0712891,22.5029296 18.4052735,22.165039 18.819336,22.1630858 C18.8208008,22.1630858 18.8222657,22.1630858 18.8237305,22.1630858 C19.2358399,22.1630858 19.5712891,22.4960936 19.5737305,22.9091796 L19.7651368,56.0888671 C19.7744141,57.6562499 19.6953126,59.2861327 18.6342774,60.477539 C17.4624024,61.7949218 15.604004,61.9765624 13.9541016,62.0429687 C13.5239258,62.0615234 13.0722656,62.0800781 12.609375,62.0800781 Z" id="Shape" fill-rule="nonzero"></path>
                    <path d="M13.0102539,61.75 C13.0078125,61.75 13.0048828,61.75 13.0019531,61.75 C12.5878906,61.7451172 12.2558593,61.40625 12.2602539,60.9921875 L12.4775391,41.1611328 C12.4819336,40.7490234 12.8168946,40.4189453 13.2275391,40.4189453 C13.2299805,40.4189453 13.2329102,40.4189453 13.2358399,40.4189453 C13.6499024,40.4238281 13.9819337,40.7626953 13.9775391,41.1767578 L13.7602539,61.0078125 C13.7558594,61.4199219 13.4208984,61.75 13.0102539,61.75 Z" id="Shape" fill-rule="nonzero"></path>
                    <rect id="Rectangle-16" x="31" y="18" width="10" height="6"></rect>
                    <path d="M5.4101563,39.7080078 C3.9951172,39.7080078 2.572754,39.0107422 1.7651368,37.84375 C0.9414063,36.6533203 0.7973634,35.2001953 0.7202149,33.8144531 C0.4531251,28.9833984 0.5805665,24.0986328 1.0996094,19.2939453 C1.2529297,17.8701172 1.4892578,16.3886719 2.5200196,15.2949219 C3.4042969,14.3574219 4.6503907,13.9707031 5.8647462,13.6923828 C9.0961915,12.9541015 12.4140626,12.6669922 15.7241212,12.8378906 C17.3076173,12.9208984 19.3535157,13.1347656 21.1347657,14.0576172 C23.0595704,15.0556641 24.3862305,16.8222656 24.5976563,18.6689453 C24.6723633,19.3242187 24.6191407,19.9814453 24.5678711,20.6171875 C24.4833984,21.6650391 24.4101563,22.5712891 24.8955078,23.2128906 C25.4194336,23.9052734 26.4628906,24.03125 27.0375976,24.0439453 C27.4711914,24.0498047 27.902832,24.0205078 28.3359374,23.9892578 C28.9125976,23.946289 29.5083007,23.9013672 30.1215819,23.946289 C31.5878905,24.0488281 32.7499999,24.6894531 33.3095702,25.7031249 C33.6831054,26.3779296 33.7558593,27.1923827 33.5136718,27.9980468 C33.2104491,29.0068359 32.4633788,29.9052734 31.5146484,30.4013671 C29.9907226,31.1982421 28.2241211,31.1083984 26.8032226,31.0361327 C26.2895507,31.0107421 25.7499999,31.0087889 25.2016601,31.0068358 C23.1337891,31 20.7905273,30.9921875 19.0517578,29.6953125 C18.7197265,29.4472656 18.6513672,28.9775391 18.8989258,28.6455078 C19.1459961,28.3134765 19.6166992,28.2470703 19.9482422,28.4921875 C21.2905274,29.4941406 23.28125,29.5009766 25.206543,29.5068359 C25.7792969,29.508789 26.3417969,29.5107422 26.878418,29.5380859 C28.1796875,29.6044922 29.6582032,29.6787109 30.8203125,29.071289 C31.3999023,28.7685546 31.8935547,28.1777343 32.0771484,27.5664062 C32.1655273,27.2724609 32.2231445,26.836914 31.9970703,26.4287109 C31.6918945,25.8769531 30.9516601,25.5078125 30.0161133,25.4423828 C29.5117188,25.4091797 28.9936524,25.4453125 28.4458008,25.4853516 C27.9799805,25.5195313 27.5,25.5517578 27.0039063,25.5439453 C25.5429688,25.5097656 24.369629,25.0039062 23.6992188,24.1171875 C22.8691407,23.0195312 22.9775391,21.6787109 23.072754,20.4960937 C23.1206056,19.9062499 23.1655274,19.3496093 23.107422,18.8388671 C22.9521486,17.4824218 21.9316407,16.1601562 20.4443361,15.3896483 C18.9272463,14.6025389 17.1674806,14.4150389 15.6459963,14.3359374 C12.470215,14.1689452 9.2944338,14.446289 6.1997072,15.1552733 C5.0625002,15.4150389 4.1870119,15.7138671 3.6118166,16.3242186 C2.8999025,17.0791014 2.7172853,18.2841795 2.5908205,19.4541014 C2.0805666,24.1787108 1.9550783,28.9814452 2.2182619,33.7314452 C2.2856447,34.9521483 2.3964846,36.1201171 2.9985353,36.9902343 C3.6640626,37.9521484 4.9677736,38.4287109 6.0966798,38.118164 C6.4960939,38.0126952 6.9082032,38.2441406 7.0175782,38.6445312 C7.1264649,39.0439453 6.8911134,39.4560546 6.491211,39.5654296 C6.1386719,39.6621094 5.7744141,39.7080078 5.4101563,39.7080078 Z" id="Shape" fill-rule="nonzero"></path>
                    <path d="M13.1206055,11.9150391 C11.7861328,11.9150391 10.4960938,11.4667969 9.4873047,10.6533203 C7.9931641,9.4472656 7.1875,7.5126953 7.3847656,5.602539 C7.6020508,3.4941406 9.0800781,1.5751952 11.0634765,0.8261718 C13.012207,0.0917968 15.4545898,0.5693359 16.9804687,1.9804687 C18.536621,3.4189453 19.1855468,5.7529296 18.5947265,7.7880859 C18.074707,9.5830078 16.6469726,11.0595703 14.8691406,11.640625 C14.3120117,11.8232422 13.7236328,11.9150391 13.1206055,11.9150391 Z M13.0439453,1.9716797 C12.5356445,1.9716797 12.0473633,2.0585938 11.5932617,2.2294922 C10.1289062,2.7822266 9.0371094,4.2001953 8.8769531,5.756836 C8.7333984,7.1455079 9.3427734,8.6093751 10.4291992,9.4853516 C11.4951172,10.34375 13.0991211,10.6396485 14.4033203,10.2148438 C15.6958008,9.7919922 16.7758789,8.6757813 17.1542969,7.3701172 C17.5903321,5.8671875 17.1113281,4.1445313 15.9619141,3.0820313 C15.1987305,2.3759766 14.1352539,1.9716797 13.0439453,1.9716797 Z" id="Shape" fill-rule="nonzero"></path>
                    <path d="M43.7070705,34.9951172 C36.5317775,34.9951172 28.2163478,34.8339844 27.6250392,34.1025391 C27.1567775,33.5234375 27.1230861,32.609375 27.0898829,31.7246094 C27.0752345,31.3310547 27.0615626,30.9589844 27.0117579,30.678711 C26.939004,30.2705079 27.2114649,29.881836 27.6191798,29.8095704 C28.0278713,29.7402344 28.4165432,30.0097657 28.4883205,30.4169922 C28.5561916,30.7998047 28.5727932,31.241211 28.5889064,31.6679688 C28.6040431,32.0781251 28.6279689,32.7207032 28.72709,33.0263672 C30.7314845,33.4394531 44.7060939,33.6523438 54.1660548,33.3964844 C55.4897853,33.3623047 56.9624415,33.2480469 57.689004,32.3300781 C58.2187892,31.6611328 58.2725001,30.6748047 58.2851954,29.5488281 L58.4101954,18.3251953 C58.4302149,16.5693359 58.3511134,14.6103515 57.1558009,13.5820312 C56.2197657,12.7773437 54.7798243,12.6982421 53.2622462,12.6845703 L32.3476954,12.5 C31.107461,12.4960937 29.8867579,12.5830078 29.341836,13.3330078 C28.9888087,13.8183594 28.9516993,14.5410156 28.9419337,15.3652344 L28.8350001,24.3886719 C28.8301173,24.7998047 28.4951563,25.1298828 28.0850001,25.1298828 C28.0820704,25.1298828 28.0791407,25.1298828 28.076211,25.1298828 C27.6621485,25.125 27.3301172,24.7851562 27.3350001,24.3710937 L27.4419337,15.3476562 C27.4521876,14.5097656 27.4658595,13.3623046 28.1289454,12.4501953 C29.0732813,11.1533203 30.716836,11.0068359 32.360879,11 L53.2759181,11.1845703 C55.0825587,11.2001953 56.814004,11.3095703 58.1338283,12.4453125 C59.8179103,13.8925781 59.933633,16.2480469 59.9101955,18.3427734 L59.7851955,29.5664062 C59.7729885,30.6513671 59.7563869,32.1367187 58.8647853,33.2617187 C57.642129,34.805664 55.4067775,34.8642578 54.2056056,34.8964843 C54.0952541,34.8994141 49.2397854,34.9951172 43.7070705,34.9951172 Z" id="Shape" fill-rule="nonzero"></path>
                    <path d="M54.2495117,16.6132813 C54.2470703,16.6132813 54.2441406,16.6132813 54.2412109,16.6132813 L31.4941406,16.3603516 C31.0800781,16.3554688 30.7480468,16.0166016 30.7524414,15.6015625 C30.7568359,15.1904297 31.0917969,14.8603516 31.5024414,14.8603516 C31.5048828,14.8603516 31.5078125,14.8603516 31.5107422,14.8603516 L54.2578125,15.1132813 C54.671875,15.1181641 55.0039063,15.4570313 54.9995117,15.8720704 C54.9951172,16.2832031 54.6601563,16.6132813 54.2495117,16.6132813 Z" id="Shape" fill-rule="nonzero"></path>
                    <path d="M33.2294922,28.0224609 C32.9150391,28.0224609 32.6220703,27.8232421 32.5175781,27.508789 C32.387207,27.1152343 32.6000976,26.6914062 32.993164,26.5605468 L37.7559814,25.0003662 C38.1500244,24.8656006 38.5733642,25.083374 38.7042236,25.4759521 C38.8345947,25.8695068 38.6217041,26.2933349 38.2286377,26.4241943 L33.4658203,27.984375 C33.387207,28.0107422 33.3076172,28.0224609 33.2294922,28.0224609 Z" id="Shape" fill-rule="nonzero"></path>
                </g>
            </g>
        </g>
    </g>
</svg>