<?xml version="1.0" encoding="UTF-8"?>
<svg width="813px" height="47px" viewBox="0 0 813 47" version="1.1" xmlns="http://www.w3.org/2000/svg" xmlns:xlink="http://www.w3.org/1999/xlink">
    <!-- Generator: Sketch 52.2 (67145) - http://www.bohemiancoding.com/sketch -->
    <title>left_arrows</title>
    <desc>Created with Sketch.</desc>
    <g id="Page-1" stroke="none" stroke-width="1" fill="none" fill-rule="evenodd">
        <g id="left_arrows">
            <path d="M543.5,1 L543.5,44" id="Line" stroke="#7C7C7C" stroke-linecap="square"></path>
            <path d="M810.5,1 L810.5,44" id="Line" stroke="#7C7C7C" stroke-linecap="square"></path>
            <path d="M5.02668361,1 L810.5,1" id="Line" stroke="#7C7C7C" stroke-linecap="square"></path>
            <path d="M5.02668361,29.5 L9.52668361,20.5 L0.52668361,20.5 L5.02668361,29.5 Z M4.52668361,1 L4.52668361,21 L4.52668361,21.5 L5.52668361,21.5 L5.52668361,21 L5.52668361,1 L5.52668361,0.5 L4.52668361,0.5 L4.52668361,1 Z" id="Line-9" fill="#7C7C7C" fill-rule="nonzero"></path>
            <path d="M275.552308,29.9814815 L280.052308,20.9814815 L271.052308,20.9814815 L275.552308,29.9814815 Z M275.052308,2.51851852 L275.052308,21.4814815 L275.052308,21.9814815 L276.052308,21.9814815 L276.052308,21.4814815 L276.052308,2.51851852 L276.052308,2.01851852 L275.052308,2.01851852 L275.052308,2.51851852 Z" id="Line-9" fill="#7C7C7C" fill-rule="nonzero"></path>
            <circle id="Oval-11" fill="#7C7C7C" cx="810.919949" cy="45" r="2"></circle>
            <circle id="Oval-11" fill="#7C7C7C" cx="543.5" cy="45" r="2"></circle>
        </g>
    </g>
</svg>