<?xml version="1.0" encoding="UTF-8"?>
<svg width="754px" height="29px" viewBox="0 0 754 29" version="1.1" xmlns="http://www.w3.org/2000/svg" xmlns:xlink="http://www.w3.org/1999/xlink">
    <!-- Generator: Sketch 51.3 (57544) - http://www.bohemiancoding.com/sketch -->
    <title>Group 8</title>
    <desc>Created with Sketch.</desc>
    <defs></defs>
    <g id="home" stroke="none" stroke-width="1" fill="none" fill-rule="evenodd">
        <g id="Desktop-HD" transform="translate(-370.000000, -687.000000)" fill="#E3E3E3" fill-rule="nonzero">
            <g id="Group-8" transform="translate(375.000000, 688.000000)">
                <path id="Path-8" d="M294,26.5 L298.5,17.5 L289.5,17.5 L294,26.5 Z M294.5,18 L294.5,0 L294,0.5 L749,0.5 L749,-0.5 L294,-0.5 L293.5,-0.5 L293.5,0 L293.5,18 L294.5,18 Z"></path>
                <path id="Path-8" d="M-3.061617e-17,27.5 L4.5,18.5 L-4.5,18.5 L-3.061617e-17,27.5 Z M0.5,19 L0.5,0 L0,0.5 L293,0.5 L293,-0.5 L0,-0.5 L-0.5,-0.5 L-0.5,0 L-0.5,19 L0.5,19 Z"></path>
            </g>
        </g>
    </g>
</svg>