<?xml version="1.0" encoding="UTF-8"?>
<svg width="520px" height="72px" viewBox="0 0 520 72" version="1.1" xmlns="http://www.w3.org/2000/svg" xmlns:xlink="http://www.w3.org/1999/xlink">
    <!-- Generator: Sketch 51.3 (57544) - http://www.bohemiancoding.com/sketch -->
    <title>left_back_arrows</title>
    <desc>Created with Sketch.</desc>
    <defs></defs>
    <g id="home" stroke="#979797" stroke-width="1" fill="none" fill-rule="evenodd">
        <g id="Desktop-HD" transform="translate(-321.000000, -668.000000)" fill="#979797" fill-rule="nonzero">
            <g id="left_back_arrows" transform="translate(322.000000, 669.000000)">
                <path class="path" id="Path-8" d="M-0.449726772,69.2185082 L9.61192886,69.3329017 L5.67878138,61.2378198 L-0.449726772,69.2185082 Z M7.36313681,65.9783687 C7.96484367,65.6895138 8.56640344,65.4016146 9.16781614,65.1146712 L8.73720204,64.2121351 C8.13506852,64.4994224 7.53278863,64.7876662 6.93036236,65.0768665 L7.36313681,65.9783687 Z M10.9547565,64.2647014 C11.5519686,63.9815054 12.1490355,63.6992528 12.7459573,63.4179435 L12.319658,62.5133613 C11.7220138,62.7950111 11.1242251,63.0776049 10.526292,63.3611428 L10.9547565,64.2647014 Z M14.5933804,62.5501098 C15.19712,62.2674147 15.8007109,61.9856857 16.4041532,61.7049228 L15.9823086,60.7982546 C15.3781287,61.0793608 14.7738009,61.3614337 14.1693252,61.6444734 L14.5933804,62.5501098 Z M18.228397,60.8588921 C18.8385021,60.5768579 19.4484551,60.2958121 20.058256,60.0157548 L19.6409053,59.1070093 C19.0303517,59.3874123 18.4196467,59.6688045 17.8087904,59.951186 L18.228397,60.8588921 Z M21.8598064,59.1910481 C22.4652074,58.9148089 23.0704583,58.6395449 23.6755591,58.3652562 L23.2627008,57.4544609 C22.6568457,57.7290916 22.0508413,58.0046982 21.4446876,58.2812808 L21.8598064,59.1910481 Z M25.4876084,57.5465775 C26.0991369,57.2712068 26.710512,56.996833 27.3217336,56.7234563 L26.9134478,55.8106021 C26.3014569,56.084323 25.6893132,56.3590416 25.0770169,56.6347581 L25.4876084,57.5465775 Z M29.1453435,55.9105793 C29.7520555,55.6410539 30.3586162,55.3725117 30.9650256,55.1049529 L30.5613535,54.1900492 C29.9541734,54.4579481 29.3468427,54.7268311 28.7393614,54.9966983 L29.1453435,55.9105793 Z M32.799404,54.298389 C33.4119611,54.0299862 34.0243637,53.7625877 34.6366117,53.4961936 L34.2376346,52.5792328 C33.6246008,52.8459687 33.0114132,53.1137099 32.3980718,53.3824564 L32.799404,54.298389 Z M36.4497897,52.7100062 C37.0574624,52.4474407 37.6649826,52.1858655 38.2723503,51.9252808 L37.8780676,51.0062915 C37.2699128,51.267214 36.6616063,51.5291277 36.0531481,51.7920327 L36.4497897,52.7100062 Z M40.1299398,51.1311871 C40.7431744,50.869991 41.3562535,50.6098055 41.969177,50.3506307 L41.5797141,49.4295885 C40.9659886,49.6891025 40.3521083,49.949628 39.7380732,50.2111651 L40.1299398,51.1311871 Z M43.8063474,49.576614 C44.4249819,49.3169314 45.0434577,49.0582795 45.661775,48.8006582 L45.2771734,47.8775755 C44.6580392,48.1355372 44.0387472,48.3945305 43.4192973,48.6545553 L43.8063474,49.576614 Z M47.512383,48.0324856 C48.1258977,47.7787764 48.7392561,47.5260828 49.3524581,47.274405 L48.9727626,46.3492935 C48.3587425,46.6013071 47.7445668,46.8543373 47.1302356,47.1083843 L47.512383,48.0324856 Z M51.2146077,46.5130455 C51.8332371,46.2610851 52.4517072,46.0101595 53.0700181,45.7602688 L52.6953123,44.833125 C52.0761685,45.0833524 51.4568663,45.3346155 50.8374055,45.5869146 L51.2146077,46.5130455 Z M54.9130213,45.0182933 C55.5366031,44.7682187 56.1600228,44.5191977 56.7832803,44.2712303 L56.4136068,43.3420686 C55.7895016,43.5903732 55.165235,43.8397325 54.5408071,44.0901465 L54.9130213,45.0182933 Z M58.6076237,43.5482289 C59.2259423,43.3041428 59.8441011,43.0610948 60.4621001,42.8190849 L60.0974601,41.8879363 C59.4786125,42.1302785 58.8596059,42.3736599 58.2404404,42.6180803 L58.6076237,43.5482289 Z M62.3316482,42.0899425 C62.9546334,41.8479647 63.5774562,41.6070429 64.2001164,41.367177 L63.8406397,40.4340229 C63.2171163,40.6742213 62.5934312,40.9154767 61.9695843,41.1577892 L62.3316482,42.0899425 Z M66.0849905,40.6441073 C66.7124314,40.4044214 67.3397071,40.165809 67.9668176,39.9282698 L67.6125941,38.9931091 C66.9846059,39.2309806 66.3564533,39.4699267 65.7281363,39.7099472 L66.0849905,40.6441073 Z M69.80122,39.2363129 C70.4232076,39.0026708 71.0450325,38.7700857 71.6666947,38.5385576 L71.3176804,37.6014402 C70.6951398,37.8332954 70.0724374,38.0662088 69.4495731,38.3001802 L69.80122,39.2363129 Z M73.5466978,37.8414198 C74.1729022,37.6102252 74.7989412,37.3801042 75.4248151,37.1510568 L75.081142,36.2119674 C74.4543755,36.4413415 73.8274446,36.6717903 73.2003492,36.9033139 L73.5466978,37.8414198 Z M77.3213191,36.4601069 C77.9515277,36.2315356 78.5815687,36.004054 79.2114418,35.7776622 L78.8732019,34.8366023 C78.2424217,35.0633201 77.6114747,35.2911289 76.9803607,35.5200285 L77.3213191,36.4601069 Z M81.0919203,35.1048322 C81.7164354,34.8823993 82.3407855,34.6610387 82.9649704,34.4407505 L82.6321669,33.4977543 C82.0070748,33.7183627 81.3818183,33.9400446 80.7563976,34.1628001 L81.0919203,35.1048322 Z M84.8585016,33.7755955 C85.4867816,33.5559282 86.1148943,33.3373485 86.7428395,33.1198564 L86.4155591,32.1749291 C85.7866927,32.3927403 85.1576596,32.6116403 84.5284599,32.8316292 L84.8585016,33.7755955 Z M88.6210628,32.4723964 C89.2529454,32.2556084 89.8846583,32.0399229 90.5162014,31.8253398 L90.1944891,30.8785024 C89.5620108,31.0934031 88.9293636,31.3094077 88.2965475,31.526516 L88.6210628,32.4723964 Z M92.412556,31.1841466 C93.0478272,30.9704025 93.6829265,30.7577752 94.3178539,30.5462646 L94.0018036,29.5975222 C93.3659272,29.8093489 92.7298799,30.0222936 92.0936615,30.2363564 L92.412556,31.1841466 Z M96.1999584,29.9223924 C96.8292685,29.7148301 97.4584094,29.508366 98.0873813,29.3030002 L97.776997,28.352389 C97.1470764,28.5580646 96.5169876,28.7648397 95.8867306,28.9727144 L96.1999584,29.9223924 Z M100.016151,28.6765084 C100.648558,28.4721665 101.280795,28.2689361 101.912861,28.0668172 L101.60828,27.1143309 C100.975252,27.3167575 100.342054,27.5202969 99.7086853,27.7249491 L100.016151,28.6765084 Z M103.795336,27.467975 C104.430732,27.2669023 105.065954,27.0669541 105.701004,26.8681303 L105.402221,25.9138091 C104.766196,26.1129383 104.129999,26.3131932 103.49363,26.514574 L103.795336,27.467975 Z M107.636048,26.2656133 C108.274163,26.0680164 108.912102,25.8715561 109.549867,25.6762323 L109.25703,24.72007 C108.618277,24.9156965 107.97935,25.112461 107.340248,25.3103635 L107.636048,26.2656133 Z M111.439754,25.1006014 C112.080479,24.9065225 112.721026,24.713592 113.361396,24.5218099 L113.0745,23.5638482 C112.433128,23.7559302 111.79158,23.9491621 111.149856,24.1435439 L111.439754,25.1006014 Z M115.272035,23.9528525 C115.915152,23.7624381 116.55809,23.5731831 117.20085,23.3850877 L116.919992,22.4253385 C116.276218,22.6137306 115.632266,22.8032839 114.988137,22.9939981 L115.272035,23.9528525 Z M119.100082,22.8325266 C119.736767,22.6483715 120.373276,22.4653553 121.009611,22.283478 L120.734795,21.321981 C120.097448,21.5041477 119.459926,21.687455 118.82223,21.8719026 L119.100082,22.8325266 Z M122.956559,21.7304005 C123.595344,21.5500542 124.233952,21.370857 124.872383,21.1928089 L124.60375,20.2295662 C123.964294,20.4079003 123.324661,20.5873849 122.684853,20.7680202 L122.956559,21.7304005 Z M126.808729,20.6561673 C127.449451,20.4797137 128.089995,20.3044187 128.730361,20.1302824 L128.467957,19.1653242 C127.826554,19.3397426 127.184974,19.5153213 126.543216,19.6920601 L126.808729,20.6561673 Z M130.656593,19.6098267 C131.29909,19.4373461 131.941408,19.2660332 132.583545,19.0958879 L132.327417,18.1292451 C131.68423,18.2996684 131.040865,18.4712609 130.39732,18.6440227 L130.656593,19.6098267 Z M134.532706,18.5828664 C135.176758,18.4144889 135.82063,18.2472873 136.46432,18.0812616 L136.214567,17.1129522 C135.569815,17.2792515 134.924884,17.4467284 134.279772,17.6153828 L134.532706,18.5828664 Z M138.404439,17.5842727 C139.049884,17.4200715 139.695148,17.2570541 140.340229,17.0952203 L140.096896,16.1252775 C139.450743,16.2873802 138.804408,16.4506683 138.157892,16.6151417 L138.404439,17.5842727 Z M142.271793,16.6140449 C142.918469,16.4540901 143.564962,16.2953262 144.211272,16.1377532 L143.974406,15.1662109 C143.327013,15.324048 142.679438,15.4830777 142.03168,15.6433 L142.271793,16.6140449 Z M146.167212,15.6643882 C146.814898,15.5087989 147.4624,15.354407 148.109718,15.2012125 L147.879419,14.2280925 C147.231007,14.381546 146.582412,14.5361985 145.933634,14.6920501 L146.167212,15.6643882 Z M150.058178,14.7435754 C150.706712,14.5924144 151.355061,14.4424566 152.003225,14.2937021 L151.779539,13.3190408 C151.130271,13.4680488 150.480818,13.6182618 149.831181,13.7696798 L150.058178,14.7435754 Z M153.944692,13.851606 C154.593912,13.7049325 155.242947,13.5594675 155.891795,13.4152111 L155.674767,12.4390456 C155.024804,12.5835499 154.374656,12.7292644 153.724323,12.8761893 L153.944692,13.851606 Z M157.859085,12.9814082 C158.50877,12.8393301 159.158267,12.698465 159.807579,12.558813 L159.59731,11.5811694 C158.946874,11.7210632 158.296253,11.8621719 157.645446,12.0044955 L157.859085,12.9814082 Z M161.768952,12.1405356 C162.418939,12.0031047 163.068738,11.8668908 163.718351,11.7318937 L163.514886,10.7528115 C162.86414,10.888044 162.213208,11.0244955 161.562089,11.1621657 L161.768952,12.1405356 Z M165.674293,11.3289879 C166.324421,11.1962524 166.974361,11.0647371 167.624113,10.9344421 L167.427497,9.95396154 C166.776602,10.0844857 166.12552,10.216232 165.474252,10.3492005 L165.674293,11.3289879 Z M169.607328,10.5404222 C170.264888,10.410999 170.922255,10.2828271 171.57943,10.1559064 L171.389804,9.17405012 C170.731464,9.30119572 170.072933,9.42959459 169.414209,9.5592467 L169.607328,10.5404222 Z M173.535762,9.78166712 C174.192989,9.65714802 174.850024,9.53388183 175.506866,9.41186856 L175.324233,8.42868744 C174.666218,8.55091859 174.008011,8.67440469 173.349612,8.79914572 L173.535762,9.78166712 Z M177.459595,9.05272226 C178.11633,8.93314287 178.772871,8.81481744 179.42922,8.69774596 L179.253623,7.71328372 C178.596094,7.83056581 177.938372,7.94910392 177.280459,8.06889803 L177.459595,9.05272226 Z M181.378829,8.35358718 C182.03491,8.23897947 182.690799,8.12562616 183.346494,8.01352723 L183.177977,7.02782848 C182.521093,7.14013054 181.864018,7.25368908 181.206749,7.3685041 L181.378829,8.35358718 Z M185.325531,7.6788983 C185.980734,7.56934153 186.635744,7.46103874 187.290561,7.35398994 L187.129223,6.36709061 C186.473211,6.47433481 185.817007,6.5828351 185.16061,6.69259149 L185.325531,7.6788983 Z M189.267558,7.03450898 C189.928795,6.92889756 190.589834,6.82456636 191.250677,6.72151536 L191.0966,5.73345648 C190.434543,5.83669691 189.772289,5.94121974 189.109839,6.04702495 L189.267558,7.03450898 Z M193.204911,6.42041876 C193.864861,6.31996908 194.524614,6.22079765 195.184171,6.12290448 L195.037357,5.13374042 C194.376579,5.2318148 193.715605,5.33116964 193.054436,5.43180493 L193.204911,6.42041876 Z M197.137589,5.83662719 C197.796094,5.74135459 198.454403,5.64735766 199.112516,5.5546364 L198.973004,4.564416 C198.313665,4.65731005 197.65413,4.75148201 196.9944,4.84693187 L197.137589,5.83662719 Z M201.09751,5.27875807 C201.761149,5.18779099 202.424589,5.09812265 203.087829,5.00975306 L202.955757,4.01851295 C202.291273,4.10704834 201.626589,4.19688477 200.961707,4.28802223 L201.09751,5.27875807 Z M205.084558,4.74755593 C205.746208,4.66194758 206.407659,4.57763332 207.06891,4.49461314 L206.944338,3.50240258 C206.281838,3.58557955 205.619139,3.67005291 204.956241,3.75582267 L205.084558,4.74755593 Z M209.034942,4.25151956 C209.694514,4.17122161 210.353887,4.09221272 211.013063,4.01449288 L210.895969,3.02137199 C210.235541,3.09923955 209.574915,3.17839849 208.914091,3.25884881 L209.034942,4.25151956 Z M213.012377,3.78264795 C213.676182,3.70696176 214.339787,3.63258437 215.003189,3.5595158 L214.893709,2.56552681 C214.229038,2.63873513 213.564165,2.71325465 212.899092,2.78908537 L213.012377,3.78264795 Z M216.984987,3.34506612 C217.64624,3.27479079 218.307292,3.20581738 218.968144,3.13814588 L218.866276,2.14334792 C218.204153,2.21114964 217.541829,2.28025568 216.879306,2.35066603 L216.984987,3.34506612 Z M220.952773,2.93877365 C221.617678,2.87327066 222.282381,2.80908719 222.94688,2.74622325 L222.852697,1.75066834 C222.186911,1.81365397 221.520923,1.87796159 220.854733,1.94359119 L220.952773,2.93877365 Z M224.947419,2.56089625 C225.609295,2.5008824 226.27097,2.44217928 226.932443,2.38478689 L226.846003,1.38852981 C226.183242,1.44603395 225.52028,1.50485129 224.857117,1.56498182 L224.947419,2.56089625 Z M228.905519,2.21743159 C229.57047,2.162325 230.235217,2.10854457 230.899759,2.05609029 L230.821071,1.05919101 C230.155227,1.11174799 229.48918,1.16563365 228.822929,1.22084798 L228.905519,2.21743159 Z M232.890403,1.90288382 C233.551924,1.85327476 234.213242,1.80498143 234.874358,1.75800383 L234.803478,0.760518933 C234.141061,0.80758902 233.478442,0.855977358 232.815621,0.905683945 L232.890403,1.90288382 Z M236.901955,1.61800947 C237.565821,1.57351077 238.229483,1.53034042 238.892941,1.48849843 L238.829999,0.490481212 C238.165229,0.53240602 237.500254,0.575661753 236.835076,0.62024841 L236.901955,1.61800947 Z M240.877001,1.36729438 C241.542958,1.32792966 242.208709,1.28990497 242.874254,1.2532203 L242.819218,0.254735938 C242.152349,0.29149359 241.485275,0.32959388 240.817994,0.369036807 L240.877001,1.36729438 Z M244.878639,1.14675857 C245.546277,1.11263705 246.213707,1.07986568 246.88093,1.04844444 L246.833889,0.0495514555 C246.165333,0.0810355149 245.496569,0.11387237 244.827598,0.148062018 L244.878639,1.14675857 Z M248.875301,0.958518635 C249.538546,0.929942201 250.201586,0.902701508 250.86442,0.876796555 L250.825368,-0.122440614 C250.161202,-0.0964836204 249.496831,-0.0691882364 248.832255,-0.0405544634 L248.875301,0.958518635 Z M252.866988,0.802574238 C253.531341,0.779292772 254.195488,0.757354849 254.859428,0.736760467 L254.828424,-0.262758808 C254.163144,-0.242122864 253.497658,-0.220140691 252.831965,-0.196812293 L252.866988,0.802574238 Z M256.8537,0.678925046 C257.518833,0.660978559 258.183757,0.644382123 258.848475,0.629135737 L258.825544,-0.370601322 C258.159479,-0.35532403 257.493207,-0.338693969 256.826728,-0.320711143 L256.8537,0.678925046 Z M260.866772,0.586979568 C261.532271,0.574444181 262.197563,0.563263735 262.862646,0.553438227 L262.847874,-0.446452665 C262.181437,-0.436607155 261.514792,-0.42540396 260.847939,-0.412843081 L260.866772,0.586979568 Z M264.843498,0.528174153 C265.509122,0.521029566 266.174536,0.515243809 266.839742,0.51081688 L266.833087,-0.489160976 C266.166522,-0.484724999 265.499748,-0.478927422 264.832765,-0.471768247 L264.843498,0.528174153 Z M268.846507,0.501582445 C269.511842,0.499887815 270.176969,0.499554261 270.841886,0.500581782 L270.843431,-0.499417024 C270.17715,-0.500446653 269.510659,-0.500112415 268.84396,-0.498414311 L268.846507,0.501582445 Z M272.844466,0.507795357 C273.509187,0.511557842 274.173698,0.516682318 274.838001,0.523168786 L274.847765,-0.476783547 C274.182094,-0.483283372 273.516215,-0.488418398 272.850126,-0.492188624 L272.844466,0.507795357 Z M276.837375,0.546812638 C277.501157,0.556031389 278.164729,0.566611716 278.828092,0.578553619 L278.846091,-0.421284383 C278.181357,-0.433250965 277.516414,-0.443853148 276.851262,-0.453090935 L276.837375,0.546812638 Z M280.825236,0.618634055 C281.492792,0.633411749 282.160136,0.649570033 282.827268,0.667108905 L282.853549,-0.332545693 C282.185034,-0.35012093 281.516307,-0.366312703 280.847368,-0.381121012 L280.825236,0.618634055 Z M284.839145,0.724205922 C285.504936,0.744493459 286.170516,0.7661578 286.835884,0.789198944 L286.870492,-0.210202005 C286.203741,-0.233291069 285.536777,-0.255000451 284.869603,-0.27533015 L284.839145,0.724205922 Z M288.816873,0.861891273 C289.480668,0.887621348 290.144252,0.914723455 290.807626,0.943197593 L290.850509,-0.0558824754 C290.185752,-0.0844160041 289.520784,-0.11157462 288.855606,-0.137358323 L288.816873,0.861891273 Z M292.820571,1.03384127 C293.486731,1.06524331 294.152679,1.09803073 294.818414,1.13220351 L294.869677,0.133518341 C294.20255,0.0992740949 293.53521,0.0664181327 292.867657,0.0349504534 L292.820571,1.03384127 Z M296.819145,1.23910922 C297.482487,1.27594931 298.145618,1.31416659 298.808537,1.35376105 L298.868158,0.355539977 C298.203849,0.315862501 297.539328,0.277565123 296.874596,0.240647843 L296.819145,1.23910922 Z M300.812596,1.47769499 C301.4774,1.52021381 302.141992,1.56411944 302.806371,1.60941189 L302.874386,0.611727572 C302.208611,0.566339952 301.542623,0.522342088 300.876422,0.47973398 L300.812596,1.47769499 Z M304.800924,1.74959848 C305.466699,1.7977994 306.13226,1.84739476 306.797607,1.89838456 L306.874019,0.901308262 C306.207271,0.850211096 305.540309,0.800511334 304.873133,0.752208976 L304.800924,1.74959848 Z M308.78413,2.0548196 C309.445959,2.10833583 310.107575,2.16323357 310.768979,2.21951281 L310.853763,1.22311348 C310.190964,1.16671552 309.527952,1.111702 308.864729,1.05807292 L308.78413,2.0548196 Z M312.762216,2.39335827 C313.424123,2.45249695 314.085816,2.51302101 314.747297,2.57493047 L314.840482,1.57928166 C314.177603,1.51724139 313.514512,1.45658947 312.851208,1.39732588 L312.762216,2.39335827 Z M316.735183,2.76521444 C317.39668,2.82994371 318.057964,2.89606023 318.719035,2.96356398 L318.82062,1.96873707 C318.15815,1.90109048 317.495467,1.83483409 316.83257,1.76996791 L316.735183,2.76521444 Z M320.733769,3.17365913 C321.394266,3.24396741 322.054551,3.31566234 322.714622,3.38874393 L322.824667,2.39481735 C322.163198,2.32158094 321.501514,2.24973415 320.839618,2.17927697 L320.733769,3.17365913 Z M324.696458,3.61240856 C325.359658,3.68867537 326.022643,3.76634382 326.685412,3.84541392 L326.803875,2.85245539 C326.1397,2.77321763 325.47531,2.69538449 324.810704,2.61895599 L324.696458,3.61240856 Z M328.68469,4.08826507 C329.345834,4.17000738 330.006764,4.2531463 330.667479,4.3376818 L330.79439,3.34576769 C330.132272,3.26105278 329.46994,3.17773744 328.807393,3.09582169 L328.68469,4.08826507 Z M332.637107,4.59390785 C333.295824,4.68101196 333.954328,4.76950602 334.612618,4.85939005 L334.747904,3.8685835 C334.088216,3.77850862 333.428314,3.68982666 332.768199,3.60253762 L332.637107,4.59390785 Z M336.614988,5.13717638 C337.274511,5.23011463 337.933819,5.3244499 338.592914,5.42018217 L338.736653,4.43056667 C338.076159,4.33463105 337.41545,4.24009542 336.754527,4.14695977 L336.614988,5.13717638 Z M340.557136,5.70971278 C341.21693,5.80839002 341.87651,5.90846905 342.535875,6.00994988 L342.68799,5.02158723 C342.027225,4.91989082 341.366244,4.81959918 340.705048,4.72071232 L340.557136,5.70971278 Z M344.52467,6.32039371 C345.183974,6.42475325 345.843064,6.53051618 346.501938,6.63768249 L346.662479,5.65065331 C346.002205,5.54325936 345.341716,5.43727177 344.681011,5.33269054 L344.52467,6.32039371 Z M348.456552,6.9598242 C349.114842,7.06974062 349.772917,7.18105974 350.430777,7.29378159 L350.599662,6.30814583 C349.940405,6.19518462 349.280933,6.08362909 348.621244,5.97347925 L348.456552,6.9598242 Z M352.413743,7.63791809 C353.070257,7.75329923 353.726557,7.8700792 354.382643,7.988258 L354.559917,7.0040965 C353.902439,6.88566688 353.244746,6.76863904 352.586838,6.65301298 L352.413743,7.63791809 Z M356.335363,8.34424333 C356.989587,8.46493383 357.643597,8.58701704 358.297394,8.71049297 L358.482973,7.72786365 C357.82779,7.60412585 357.172392,7.4817837 356.51678,7.36083718 L356.335363,8.34424333 Z M360.251873,9.08388711 C360.906488,9.21037997 361.560889,9.33827085 362.215075,9.46755976 L362.408958,8.4865351 C361.753386,8.35697226 361.097598,8.22881037 360.441596,8.10204943 L360.251873,9.08388711 Z M364.193575,9.86297176 C364.847652,9.99514554 365.501513,10.1287187 366.15516,10.2636913 L366.357385,9.28435231 C365.702355,9.14909406 365.04711,9.01523814 364.391649,8.88278455 L364.193575,9.86297176 Z M368.039306,10.6567528 C368.692445,10.7943955 369.34537,10.9334371 369.99808,11.0738778 L370.208432,10.096252 C369.554342,9.95551447 368.900037,9.81617889 368.245517,9.67824523 L368.039306,10.6567528 Z M371.940532,11.4960954 C372.591679,11.6390629 373.242613,11.7834246 373.893333,11.9291805 L374.111908,10.9533605 C373.459815,10.8072971 372.807508,10.6626307 372.154986,10.5193613 L371.940532,11.4960954 Z M375.836651,12.3687575 C376.485017,12.5168496 377.133171,12.6663277 377.781113,12.8171916 L378.007883,11.8432433 C377.358577,11.6920616 376.709057,11.5422686 376.059324,11.3938644 L375.836651,12.3687575 Z M379.727665,13.2747395 C380.375362,13.4284232 381.022847,13.5834935 381.67012,13.7399506 L381.905071,12.7679434 C381.256438,12.6111575 380.607591,12.4557611 379.958532,12.3017542 L379.727665,13.2747395 Z M383.613574,14.2140417 C384.259654,14.3730867 384.905522,14.5335151 385.551178,14.6953269 L385.794276,13.7253252 C385.147266,13.563174 384.500043,13.4024091 383.852607,13.2430303 L383.613574,14.2140417 Z M387.494379,15.1866645 C388.140629,15.3515133 388.786668,15.5177498 389.432493,15.6853741 L389.683719,14.7174457 C389.036543,14.5494707 388.389152,14.3828863 387.741549,14.2176924 L387.494379,15.1866645 Z M391.370081,16.1926083 C392.012746,16.3622874 392.655201,16.5333425 393.297444,16.7057736 L393.556744,15.7399767 C392.91316,15.5671857 392.269364,15.3957735 391.625357,15.2257402 L391.370081,16.1926083 Z M395.210695,17.2236889 C395.854134,17.3992943 396.49736,17.5762827 397.140375,17.7546541 L397.407679,16.791042 C396.763327,16.6122995 396.118761,16.4349427 395.473983,16.2589716 L395.210695,17.2236889 Z M399.076233,18.2960175 C399.716542,18.4765228 400.35664,18.6584013 400.996528,18.841653 L401.271842,17.8802986 C400.630626,17.6966667 399.989199,17.5144107 399.347561,17.3335306 L399.076233,18.2960175 Z M402.906763,19.3929691 C403.545423,19.5787192 404.183873,19.7658391 404.822113,19.9543287 L405.105346,18.9952778 C404.465787,18.8063985 403.826016,18.6188915 403.186035,18.4327569 L402.906763,19.3929691 Z M406.76214,20.5316841 C407.400059,20.7229818 408.037768,20.9156497 408.675268,21.1096878 L408.966452,20.1530209 C408.327639,19.9585829 407.688615,19.7655178 407.04938,19.5738255 L406.76214,20.5316841 Z M410.582589,21.6945084 C411.218538,21.8909307 411.854277,22.0887184 412.489807,22.2878714 L412.788834,21.3336268 C412.151999,21.1340649 411.514954,20.9358709 410.877699,20.7390449 L410.582589,21.6945084 Z M414.398019,22.8901416 C415.032766,23.0919128 415.667304,23.2950477 416.301633,23.4995464 L416.608467,22.5477836 C415.972841,22.3428667 415.337005,22.1393161 414.700958,21.9371318 L414.398019,22.8901416 Z M418.17868,24.1088599 C418.810867,24.3154846 419.442846,24.5234656 420.074618,24.732803 L420.389151,23.7835564 C419.756092,23.5737925 419.122825,23.3653876 418.489348,23.1583415 L418.17868,24.1088599 Z M421.984111,25.369856 C422.616018,25.5821134 423.247716,25.7957295 423.879206,26.0107043 L424.201469,25.0640541 C423.568698,24.8486432 422.935717,24.6345935 422.302528,24.4219051 L421.984111,25.369856 Z M425.754853,26.6534275 C426.384827,26.870713 427.014594,27.0893526 427.644154,27.3093462 L427.974034,26.3653232 C427.343203,26.1448853 426.712163,25.9258039 426.080915,25.708079 L425.754853,26.6534275 Z M429.550288,27.9797885 C430.178128,28.2020557 430.805762,28.4256712 431.433189,28.6506352 L431.7707,27.7093135 C431.142012,27.4838973 430.513115,27.2598319 429.884011,27.0371174 L429.550288,27.9797885 Z M433.311114,29.3282153 C433.936804,29.5553898 434.562288,29.7839071 435.187567,30.0137671 L435.532604,29.0751778 C434.906074,28.8448579 434.279337,28.6158831 433.652393,28.3882535 L433.311114,29.3282153 Z M437.067001,30.7089433 C437.690093,30.9408343 438.31298,31.1740605 438.935664,31.4086218 L439.288177,30.472815 C438.664254,30.2377867 438.040125,30.0040958 437.415791,29.7717425 L437.067001,30.7089433 Z M440.788435,32.1107207 C441.4101,32.3476978 442.031561,32.5860074 442.652817,32.8256496 L443.012708,31.8926552 C442.390221,31.6525384 441.767528,31.4137564 441.14463,31.1763092 L440.788435,32.1107207 Z M444.534487,33.5557985 C445.154969,33.7979907 445.775247,34.0415138 446.395322,34.2863679 L446.762602,33.3562577 C446.141306,33.1109211 445.519804,32.8669178 444.898098,32.6242477 L444.534487,33.5557985 Z M448.246164,35.0214201 C448.864287,35.2683063 449.482208,35.5165169 450.099926,35.7660518 L450.474482,34.8388474 C449.855553,34.5888235 449.23642,34.3401261 448.617084,34.0927554 L448.246164,35.0214201 Z M451.952982,36.5188384 C452.569863,36.7708463 453.186541,37.0241768 453.803016,37.2788298 L454.184804,36.3545799 C453.567127,36.0994306 452.949247,35.8456061 452.331162,35.5931063 L451.952982,36.5188384 Z M455.654943,38.048054 C456.269716,38.3048148 456.884287,38.5628926 457.498657,38.8222874 L457.887622,37.9010347 C457.272062,37.6411373 456.656298,37.382559 456.040332,37.1252999 L455.654943,38.048054 Z M459.322723,39.5965532 C459.935604,39.8580905 460.548284,40.12094 461.160763,40.3851018 L461.556797,39.4668661 C460.943138,39.2021955 460.329277,38.9388392 459.715214,38.6767974 L459.322723,39.5965532 Z M462.985722,41.1763481 C463.595981,41.442324 464.206041,41.7096043 464.815901,41.9781891 L465.218949,41.0630105 C464.607922,40.7939115 463.996693,40.526119 463.385264,40.2596331 L462.985722,41.1763481 Z M466.643942,42.7874393 C467.252323,43.0581516 467.860506,43.3301638 468.468489,43.6034759 L468.878504,42.691397 C468.269364,42.4175649 467.660023,42.1450347 467.050482,41.8738065 L466.643942,42.7874393 Z M470.297382,44.4298272 C470.903513,44.7050869 471.509445,44.9816403 472.11518,45.2594874 L472.532106,44.3505469 C471.925226,44.0721745 471.318147,43.7950978 470.710868,43.5193169 L470.297382,44.4298272 Z M473.946043,46.1035125 C474.550277,46.3834568 475.154313,46.6646901 475.758152,46.9472124 L476.181938,46.0414497 C475.576964,45.7583968 474.971792,45.4766348 474.366421,45.1961638 L473.946043,46.1035125 Z M477.560793,47.7947317 C478.162355,48.0789299 478.763721,48.364409 479.364891,48.6511692 L479.795422,47.7485937 C479.193131,47.4612985 478.590642,47.1752862 477.987955,46.8905569 L477.560793,47.7947317 Z M481.17084,49.5167505 C481.770899,49.805731 482.370762,50.0959894 482.97043,50.3875256 L483.40766,49.4881761 C482.806881,49.1960996 482.205905,48.9053029 481.604733,48.615786 L481.17084,49.5167505 Z M484.776185,51.2695697 C485.373962,51.5629368 485.971544,51.8575755 486.568931,52.1534856 L487.012801,51.2573946 C486.414315,50.9609398 485.815632,50.6657585 485.216753,50.3718505 L484.776185,51.2695697 Z M488.34781,53.0386824 C488.943351,53.336388 489.538699,53.6353589 490.133853,53.9355951 L490.584255,53.0427693 C489.988014,52.7419845 489.391577,52.4424667 488.794945,52.1442162 L488.34781,53.0386824 Z M491.914809,54.8381018 C492.508169,55.1401466 493.101336,55.4434507 493.69431,55.7480142 L494.15119,54.8584856 C493.55714,54.5533696 492.962895,54.2495146 492.368457,53.9469208 L491.914809,54.8381018 Z M495.477182,56.6678283 C496.067995,56.9739972 496.658617,57.281418 497.249047,57.5900906 L497.712347,56.703889 C497.120853,56.3946604 496.529167,56.0866854 495.937287,55.779964 L495.477182,56.6678283 Z M499.006023,58.512618 C499.594813,58.8231103 500.183412,59.1348491 500.771821,59.4478344 L501.241436,58.5649633 C500.651976,58.2514185 500.062323,57.9391218 499.472479,57.6280733 L499.006023,58.512618 Z M502.530314,60.3872251 C503.116953,60.7019493 503.703402,61.017914 504.289661,61.3351194 L504.765536,60.4556066 C504.178237,60.1378384 503.590746,59.8213124 503.003064,59.5060288 L502.530314,60.3872251 Z M506.050054,62.2916502 C506.634434,62.6105219 507.218625,62.9306279 507.802627,63.2519681 L508.284706,62.3758404 C507.699676,62.0539343 507.114455,61.7332641 506.529044,61.4138298 L506.050054,62.2916502 Z M509.565245,64.2258937 C510.147252,64.5488224 510.729072,64.8729786 511.310703,65.1983623 L511.798929,64.3256452 C511.216282,63.9996931 510.633445,63.6749699 510.050418,63.3514759 L509.565245,64.2258937 Z M513.047128,66.1737361 C513.62694,66.5007484 514.206565,66.8289819 514.786004,67.1584369 L515.280272,66.2891277 C514.69983,65.9591016 514.119198,65.6302985 513.538379,65.3027182 L513.047128,66.1737361 Z M516.524535,68.1509112 C517.102029,68.4819094 517.679336,68.8141224 518.256457,69.1475501 L518.756712,68.2816719 C518.178598,67.9476708 517.600297,67.6148859 517.021809,67.2833173 L516.524535,68.1509112 Z"></path>
                <path id="Path-8" d="M290.533102,69.1789023 L300.547391,70.1607444 L297.327149,61.7565763 L290.533102,69.1789023 Z M298.584898,66.6291158 C299.212464,66.3934456 299.83907,66.1593696 300.464718,65.9268879 L300.116402,64.9895108 C299.489671,65.2223949 298.861984,65.4568747 298.233339,65.6929502 L298.584898,66.6291158 Z M302.330228,65.2373708 C302.956881,65.0069914 303.582566,64.7782213 304.207283,64.5510604 L303.865552,63.6112627 C303.239725,63.8388272 302.612932,64.0680024 301.985172,64.2987884 L302.330228,65.2373708 Z M306.095059,63.8684619 C306.725828,63.6416695 307.355604,63.416528 307.984386,63.1930374 L307.649479,62.2507865 C307.019549,62.4746849 306.388627,62.7002358 305.756715,62.9274393 L306.095059,63.8684619 Z M309.85328,62.5326034 C310.482153,62.3116649 311.110026,62.0923882 311.736899,61.8747732 L311.408954,60.9300765 C310.780906,61.1480993 310.15186,61.3677856 309.521816,61.5891353 L309.85328,62.5326034 Z M313.621338,61.2245754 C314.253155,61.0079124 314.883951,60.7929482 315.513724,60.579683 L315.192978,59.6325178 C314.561992,59.8461937 313.929986,60.0615704 313.29696,60.2786478 L313.621338,61.2245754 Z M317.415243,59.9398803 C318.049281,59.727926 318.682275,59.5177049 319.314227,59.3092172 L319.000926,58.3595634 C318.367723,58.5684637 317.73348,58.7790995 317.098196,58.9914705 L317.415243,59.9398803 Z M321.217463,58.685533 C321.853057,58.478663 322.48759,58.2735581 323.12106,58.0702182 L322.815426,57.118069 C322.180666,57.3218228 321.544847,57.5273437 320.907969,57.7346318 L321.217463,58.685533 Z M325.010898,57.467831 C325.647451,57.266362 326.282924,57.0666873 326.917318,56.8688068 L326.619547,55.9141695 C325.983825,56.1124641 325.347027,56.3125553 324.709151,56.514443 L325.010898,57.467831 Z M328.827867,56.2772884 C329.464662,56.0816111 330.100362,55.8877541 330.734967,55.6957174 L330.445329,54.738581 C329.809358,54.9310313 329.172294,55.1253042 328.534137,55.3213998 L328.827867,56.2772884 Z M332.651146,55.1204059 C333.292264,54.9294416 333.932257,54.7403482 334.571124,54.5531256 L334.289897,53.5934843 C333.649614,53.7811218 333.008208,53.9706328 332.365679,54.1620173 L332.651146,55.1204059 Z M336.480055,53.9983071 C337.120008,53.813857 337.758824,53.6312974 338.396501,53.4506283 L338.123908,52.4884991 C337.484775,52.6695804 336.844507,52.8525549 336.203105,53.0374228 L336.480055,53.9983071 Z M340.329892,52.9076756 C340.972483,52.7288257 341.613911,52.5519094 342.254175,52.3769269 L341.990545,51.4123028 C341.348777,51.5876966 340.705848,51.765027 340.061758,51.9442941 L340.329892,52.9076756 Z M344.183748,51.8544882 C344.82812,51.6816677 345.471304,51.5108202 346.1133,51.3419457 L345.858908,50.3748445 C345.215358,50.5441278 344.570623,50.7153873 343.924703,50.8886229 L344.183748,51.8544882 Z M348.056672,50.8358406 C348.701905,50.6695019 349.345928,50.5051711 349.988743,50.3428481 L349.743909,49.373283 C349.099491,49.5360109 348.453867,49.70075 347.807038,49.8675006 L348.056672,50.8358406 Z M351.931972,49.8573522 C352.581395,49.6968472 353.229574,49.5384071 353.876511,49.3820321 L353.641561,48.4100246 C352.992961,48.5668018 352.343121,48.7256477 351.692041,48.8865623 L351.931972,49.8573522 Z M355.808931,48.9202029 C356.457419,48.7669953 357.104648,48.6158786 357.750619,48.4668528 L357.525823,47.4924469 C356.87814,47.6418678 356.229201,47.7933836 355.579007,47.9469943 L355.808931,48.9202029 Z M359.702217,48.0221177 C360.352825,47.8756962 361.002145,47.7314125 361.650179,47.5892666 L361.435923,46.612489 C360.786117,46.7550236 360.135028,46.8997003 359.482655,47.0465191 L359.702217,48.0221177 Z M363.610736,47.1649029 C364.262347,47.0257579 364.912647,46.8887919 365.561634,46.7540047 L365.358285,45.7748984 C364.707467,45.9100658 364.05534,46.0474168 363.401904,46.1869513 L363.610736,47.1649029 Z M367.51824,46.3534402 C368.173554,46.2212318 368.82752,46.0912632 369.480136,45.9635344 L369.288063,44.9821539 C368.633546,45.1102546 367.977683,45.2406001 367.320476,45.3731904 L367.51824,46.3534402 Z M371.439,45.5861077 C372.093075,45.4620808 372.745783,45.3403224 373.397125,45.2208326 L373.216684,44.2372467 C372.563385,44.3570957 371.908723,44.4792185 371.252698,44.6036153 L371.439,45.5861077 Z M375.356998,44.8674061 C376.015848,44.7506595 376.673288,44.6362536 377.329318,44.5241885 L377.160935,43.538467 C376.502868,43.6508799 375.843396,43.7656393 375.182518,43.8827453 L375.356998,44.8674061 Z M379.301001,44.1937299 C379.959626,44.0854732 380.616818,43.9795963 381.272577,43.8760992 L381.116679,42.8883261 C380.458819,42.9921549 379.799529,43.0983698 379.13881,43.2069706 L379.301001,44.1937299 Z M383.254837,43.5698314 C383.915243,43.4700005 384.574183,43.3726046 385.231656,43.2776438 L385.088706,42.2879139 C384.429056,42.3831891 383.767944,42.4809061 383.105369,42.5810648 L383.254837,43.5698314 Z M387.202835,42.9996314 C387.86361,42.9086896 388.522891,42.8202294 389.180677,42.7342509 L389.05107,41.7426854 C388.391035,41.828958 387.729508,41.9177195 387.066491,42.0089699 L387.202835,42.9996314 Z M391.158581,42.4826428 C391.821324,42.4006656 392.482536,42.3212307 393.142216,42.2443381 L393.02644,41.2510629 C392.364428,41.3282272 391.700889,41.4079416 391.035823,41.4902062 L391.158581,42.4826428 Z M395.135124,42.0192689 C395.798069,41.9468138 396.459454,41.8769504 397.119276,41.8096787 L397.017848,40.8148359 C396.355615,40.8823533 395.691825,40.9524708 395.026478,41.0251884 L395.135124,42.0192689 Z M399.102651,41.6148266 C399.767082,41.5520289 400.429915,41.4918843 401.091149,41.434393 L401.00453,40.4381514 C400.3408,40.4958598 399.675476,40.5562305 399.008557,40.6192633 L399.102651,41.6148266 Z M403.088285,41.2684331 C403.752255,41.2158245 404.414597,41.1659173 405.075311,41.1187115 L405.004046,40.1212541 C404.340754,40.1686441 403.675838,40.2187452 403.009299,40.2715573 L403.088285,41.2684331 Z M407.076556,40.9836742 C407.743511,40.9413314 408.40879,40.9017688 409.072394,40.8649865 L409.017051,39.8665191 C408.35077,39.9034498 407.682819,39.9431712 407.013197,39.9856834 L407.076556,40.9836742 Z M411.066219,40.7626001 C411.731385,40.7311679 412.39485,40.7025575 413.056614,40.6767689 L413.017675,39.6775274 C412.353152,39.7034235 411.686932,39.7321526 411.019017,39.7637147 L411.066219,40.7626001 Z M415.056017,40.6072814 C415.722253,40.58695 416.386746,40.5695084 417.049498,40.5549567 L417.027547,39.5551977 C416.36194,39.5698121 415.694596,39.5873284 415.025514,39.6077467 L415.056017,40.6072814 Z M419.044681,40.5198097 C419.711918,40.5109673 420.377371,40.5050851 421.04104,40.5021632 L421.036637,39.5021729 C420.370015,39.5051078 419.701612,39.5110161 419.03143,39.5198975 L419.044681,40.5198097 Z M423.044189,40.502358 C423.711975,40.5054444 424.377935,40.5115606 425.042068,40.5207064 L425.055838,39.5208012 C424.388651,39.5116133 423.719642,39.5054692 423.048811,39.5023687 L423.044189,40.502358 Z M427.000353,40.5565758 C427.666278,40.5718169 428.330348,40.5901373 428.992561,40.611537 L429.024859,39.6120587 C428.359503,39.5905575 427.692295,39.5721505 427.023234,39.5568376 L427.000353,40.5565758 Z M430.990991,40.685701 C431.65807,40.7136743 432.323244,40.7448079 432.986513,40.7791017 L433.038149,39.7804357 C432.37163,39.7459739 431.70321,39.7146884 431.032888,39.686579 L430.990991,40.685701 Z M434.987818,40.8925245 C435.652678,40.9335288 436.315601,40.9777454 436.976587,41.0251744 L437.048158,40.0277389 C436.38383,39.9800701 435.717569,39.9356308 435.049375,39.8944209 L434.987818,40.8925245 Z M438.963715,41.1779165 C439.628672,41.2324475 440.291645,41.2902681 440.952636,41.3513783 L441.044696,40.3556248 C440.38026,40.2941961 439.713844,40.2360752 439.045447,40.1812622 L438.963715,41.1779165 Z M442.942819,41.5459338 C443.605708,41.6142742 444.266579,41.6859635 444.92543,41.7610014 L445.038591,40.7674247 C444.3762,40.6919837 443.711794,40.6199109 443.045371,40.551206 L442.942819,41.5459338 Z M446.910952,41.9980369 C447.572695,42.0806926 448.232376,42.1667684 448.889996,42.2562644 L449.024844,41.265398 C448.363587,41.1754072 447.700271,41.088857 447.034895,41.0057476 L446.910952,41.9980369 Z M450.854535,42.5346978 C451.513881,42.631888 452.171128,42.7325597 452.826277,42.8367128 L452.983281,41.849115 C452.324406,41.7443694 451.663433,41.6431271 451.000363,41.5453879 L450.854535,42.5346978 Z M454.796757,43.1615508 C455.453098,43.2736315 456.107306,43.3892518 456.75938,43.5084116 L456.939143,42.5247016 C456.283257,42.4048453 455.625238,42.2885515 454.965086,42.17582 L454.796757,43.1615508 Z M458.723863,43.8793664 C459.377259,44.0067542 460.028485,44.1377432 460.677541,44.2723332 L460.880585,43.2931634 C460.227635,43.1577659 459.572514,43.0259936 458.915222,42.8978464 L458.723863,43.8793664 Z M462.634449,44.6904807 C463.285141,44.8336564 463.933623,44.9805005 464.579895,45.1310131 L464.806719,44.1570773 C464.156472,44.005639 463.504014,43.8578944 462.849344,43.7138436 L462.634449,44.6904807 Z M466.527101,45.5972515 C467.17406,45.7564235 467.818774,45.919323 468.461242,46.0859499 L468.71229,45.1179754 C468.065777,44.9502995 467.417017,44.7863773 466.766008,44.6262089 L466.527101,45.5972515 Z M470.388983,46.5989435 C471.031147,46.7741999 471.671035,46.953233 472.308648,47.1360427 L472.584253,46.1747718 C471.942538,45.9907859 471.298543,45.8106039 470.65227,45.6342259 L470.388983,46.5989435 Z M474.2304,47.7005349 C474.867875,47.8922986 475.503042,48.0878923 476.135903,48.2873159 L476.436449,47.3335485 C475.799433,47.1328157 475.160106,46.935941 474.518467,46.7429244 L474.2304,47.7005349 Z M478.038826,48.900788 C478.670553,49.1090732 479.299948,49.3212312 479.927011,49.5372621 L480.252735,48.5917972 C479.621479,48.374322 478.987885,48.1607485 478.351953,47.9510767 L478.038826,48.900788 Z M481.813305,50.201324 C482.439622,50.4265704 483.063578,50.655739 483.685173,50.8888297 L484.036286,49.9524969 C483.410467,49.717822 482.782278,49.4870989 482.151721,49.2603276 L481.813305,50.201324 Z M485.542121,51.599574 C486.161405,51.8414466 486.77831,52.0872721 487.392836,52.3370505 L487.769377,51.4106509 C487.150615,51.1591505 486.529465,50.9116331 485.905926,50.6680987 L485.542121,51.599574 Z M489.245994,53.1053106 C489.858634,53.3642995 490.468872,53.6272793 491.076709,53.8942501 L491.478845,52.97867 C490.866766,52.7098363 490.252275,52.4450239 489.635373,52.1842329 L489.245994,53.1053106 Z M492.90261,54.711509 C493.507528,54.9873744 494.11003,55.2672561 494.710117,55.5511543 L495.137769,54.6472107 C494.533453,54.3613117 493.926709,54.0794597 493.317538,53.8016546 L492.90261,54.711509 Z M496.511501,56.4190043 C497.108098,56.7116422 497.702269,57.0083152 498.294013,57.3090234 L498.747046,56.4175294 C498.1511,56.114686 497.552713,55.8159081 496.951887,55.5211957 L496.511501,56.4190043 Z M500.0722,58.2286367 C500.660199,58.5380593 501.245763,58.8515329 501.828893,59.1690576 L502.307111,58.2908166 C501.71982,57.9710257 501.130078,57.6553158 500.537887,57.343687 L500.0722,58.2286367 Z M503.574313,60.1356638 C504.153284,60.4617115 504.729813,60.7918207 505.303903,61.1259913 L505.806971,60.2617443 C505.228773,59.9251821 504.648117,59.5927109 504.065005,59.2643307 L503.574313,60.1356638 Z M507.027628,62.145966 C507.596913,62.4883622 508.163758,62.8348215 508.728162,63.1853441 L509.255745,62.3358408 C508.687301,61.9828089 508.116398,61.6338691 507.543037,61.2890215 L507.027628,62.145966 Z M510.422085,64.2542512 C510.981211,64.6126992 511.537899,64.9752053 512.092151,65.3417697 L512.643787,64.5076852 C512.085577,64.1385025 511.52491,63.7734059 510.961788,63.4123956 L510.422085,64.2542512 Z M513.757714,66.4605386 C514.306261,66.8347227 514.85238,67.2129535 515.396069,67.5952311 L515.971242,66.7771992 C515.423687,66.3922037 514.873683,66.0112817 514.32123,65.6344336 L513.757714,66.4605386 Z"></path>
            </g>
        </g>
    </g>
</svg>