<svg width="60px" height="60px" viewBox="0 0 31 36" version="1.1" xmlns="http://www.w3.org/2000/svg" xmlns:xlink="http://www.w3.org/1999/xlink">
    <!-- Generator: Sketch 51.3 (57544) - http://www.bohemiancoding.com/sketch -->
    <title>if_icon_sets_school_outline_hand_drawn_iconfinder-15_2087699</title>
    <desc>Created with Sketch.</desc>
    <defs></defs>
    <g id="home" stroke="none" stroke-width="1" fill="none" fill-rule="evenodd">
        <g id="Desktop-HD" transform="translate(-1025.000000, -767.000000)" fill="#F3F3F3" fill-rule="nonzero">
            <g id="if_icon_sets_school_outline_hand_drawn_iconfinder-15_2087699" transform="translate(1025.000000, 767.000000)">
                <path d="M2.38108783,36 C2.33944858,36 2.29780933,35.9988071 2.25617002,35.9964214 C1.24609056,35.9349885 0.330288701,35.1029598 0.0786199448,34.0180422 C-0.136909081,33.0893909 0.0896189884,32.0486095 0.77156012,30.8354581 C0.959329645,30.5014538 1.17197791,29.9688362 1.35948554,29.4994408 C1.77064054,28.4699918 1.95841001,28 2.35254266,28 C2.73200987,28.0178931 2.93444477,28.4282413 3.24084691,29.0491314 C3.38278701,29.3366137 3.54358266,29.6628644 3.68368963,29.8531276 L3.89162405,30.1304705 C4.16083888,30.4859465 4.43921963,30.8527548 4.64689215,31.2935213 C5.11147107,32.2806233 5.11801816,33.4824425 4.6641764,34.4307762 C4.20745393,35.3838813 3.31129323,36 2.38108783,36 Z M2.37951653,29.1791545 C2.28681023,29.3902929 2.17996234,29.6574964 2.09170805,29.8787743 C1.88324984,30.400656 1.66798271,30.9398345 1.44931114,31.3293073 C0.895430414,32.3140237 0.701637583,33.1174234 0.856409923,33.7842392 C1.01877687,34.4838589 1.6389138,35.0415269 2.29911868,35.0814881 L2.38108778,35.0838739 C3.01143813,35.0838739 3.64493103,34.6454932 3.95761831,33.991799 C4.27816209,33.3225975 4.27056748,32.433311 3.93797714,31.726534 C3.7724676,31.375233 3.53467865,31.0615075 3.282748,30.7298889 C3.20994475,30.6338627 3.1374034,30.5378365 3.06617146,30.4406173 C2.87866382,30.1853426 2.7063454,29.8358309 2.53952645,29.498248 C2.49238773,29.4028182 2.43529743,29.2865131 2.37951653,29.1791545 Z" id="Shape"></path>
                <path d="M6.49604449,26 C5.2002071,26 2.00205106,25.3251269 2.00000119,24.3064162 C1.99912269,23.8211416 2.48319482,23.5090052 3.36172863,22.9426483 C3.9837306,22.5415043 4.75771888,22.042208 5.12641025,21.5654684 C5.25819034,21.3947688 5.38382065,21.2185824 5.50974387,21.0423961 C5.72996302,20.7339175 5.95779612,20.4150751 6.22135625,20.1187893 C6.75199067,19.524389 7.3230377,19.1616523 7.91839075,19.0403336 C9.06839155,18.806841 10.3683287,19.6121773 10.808767,20.8076841 C11.2067429,21.8879687 10.9721743,23.2249123 10.2110712,24.2137507 C9.56710589,25.0501787 8.56645587,25.6537237 7.39302749,25.9128213 C7.13122443,25.9707372 6.82959448,26 6.49604449,26 Z M3.06302711,24.260693 C3.6536947,24.5746583 5.18439349,25.0635907 6.49604449,25.0635907 C6.76692578,25.0635907 7.00588698,25.041034 7.20619265,24.9971398 C8.17697251,24.782546 8.9945947,24.2966618 9.50882985,23.6284949 C10.0740199,22.893877 10.254705,21.9184507 9.96888871,21.1429868 C9.68248666,20.3650843 8.84465826,19.8042142 8.09116905,19.9596728 C7.68616493,20.0419744 7.27881809,20.3102166 6.88054942,20.7564742 C6.65037353,21.0143525 6.44713936,21.299055 6.23189858,21.6008276 C6.09923998,21.7867682 5.96628852,21.9727088 5.82718732,22.1531627 C5.36185724,22.7542691 4.5509705,23.2767318 3.83555111,23.7382303 C3.58311914,23.9010046 3.26713978,24.1052345 3.06302711,24.260693 Z" id="Shape"></path>
                <path d="M11.288004,21 C11.1499823,21 11.0140031,20.9389146 10.9261711,20.8240293 C10.779979,20.6323669 10.8231655,20.3628067 11.0227571,20.2227026 C16.1380226,16.6217478 20.4893539,12.2701153 23.7087905,8.88127811 C24.7000373,7.83778298 25.6787367,6.78335977 26.6571443,5.72865635 L29.3385005,2.83914997 C29.5944097,2.56342513 29.8587811,2.27817325 30.0020552,1.96405997 C30.1041854,1.73877264 30.1619619,1.41401139 30.0163534,1.17891674 C29.825224,0.870127391 29.3376251,0.805119074 28.9760841,0.89842841 C28.5299209,1.01471478 28.143285,1.31173539 27.6845744,1.68749453 C21.2366554,6.96913779 15.2168079,12.8159608 9.79252562,19.0665638 C9.63378606,19.2492596 9.351323,19.2739179 9.16136083,19.1214846 C8.97110679,18.9690514 8.94542837,18.6978099 9.10387611,18.5151142 C14.5605483,12.2275237 20.6162873,6.34567466 27.102724,1.0326481 C27.5316709,0.681267083 28.0653743,0.243862193 28.7411846,0.0678914949 C29.4391718,-0.114524008 30.3650553,0.0580842351 30.7867072,0.738989995 C31.0574982,1.17611472 31.0712128,1.76287055 30.8234741,2.3084358 C30.623007,2.7483626 30.2961903,3.10086444 30.0078913,3.41189548 L27.3265351,6.30140186 C26.3457931,7.35834698 25.3647593,8.41557226 24.3711781,9.46130909 C21.1237286,12.8795682 16.731837,17.2709902 11.5526672,20.9164981 C11.4727138,20.9731 11.3799212,21 11.288004,21 Z" id="Shape"></path>
                <path d="M15.6021708,17 C15.5100212,17 15.417354,16.9647045 15.3420295,16.8923918 L13.1371703,14.773801 C12.9712493,14.6142538 12.9533888,14.3359072 13.097049,14.1519689 C13.2407091,13.9683175 13.4915319,13.9482307 13.6579705,14.1074908 L15.8628297,16.2260816 C16.0287507,16.3856287 16.0466112,16.6639753 15.902951,16.8479137 C15.8242615,16.948348 15.713475,17 15.6021708,17 Z" id="Shape"></path>
                <path d="M6.84220139,24 C6.63151948,24 6.42103865,23.9718119 6.22000629,23.9142929 C6.05656698,23.8678206 5.96409214,23.7047866 6.01314402,23.5501329 C6.06239694,23.3950983 6.23528476,23.3067248 6.39771887,23.3543399 C6.81345374,23.4724252 7.28206012,23.4179535 7.6535679,23.2084473 C8.02547773,22.9989411 8.30028895,22.6344003 8.38874316,22.2329101 C8.42392381,22.0748282 8.58836828,21.9731224 8.75421994,22.0062625 C8.92107677,22.0394025 9.02822701,22.1944372 8.99344843,22.3525191 C8.87001457,22.9117103 8.487249,23.4194773 7.96918865,23.7112623 C7.6316554,23.9013416 7.2364258,24 6.84220139,24 Z" id="Shape"></path>
            </g>
        </g>
    </g>
</svg>