<?xml version="1.0" encoding="UTF-8"?>
<svg width="60px" height="60px" viewBox="0 0 28 43" version="1.1" xmlns="http://www.w3.org/2000/svg" xmlns:xlink="http://www.w3.org/1999/xlink">
    <!-- Generator: Sketch 51.3 (57544) - http://www.bohemiancoding.com/sketch -->
    <title>research copy</title>
    <desc>Created with Sketch.</desc>
    <defs></defs>
    <g id="Page-1" stroke="none" stroke-width="1" fill="none" fill-rule="evenodd">
        <g id="Desktop-HD" transform="translate(-706.000000, -490.000000)">
            <g id="research-copy" transform="translate(706.000000, 490.000000)">
                <path d="M14.4896533,21 C14.3864089,21 14.284532,20.9944322 14.1826551,20.9826006 C12.8869722,20.8340104 11.9283719,19.7646478 11.2938634,19.0568432 C10.6238004,18.3090202 9.97219849,17.4915998 10.0009154,16.4479883 C10.0248463,15.629176 10.4603872,14.9718294 10.9437897,14.3148309 C13.2787538,11.1387578 15.754568,8.00722716 18.3021745,5.0068873 C19.0549696,4.11952165 19.8877621,3.23702786 21.0494324,3.04076341 C22.3273381,2.82257589 23.4746499,3.51715694 24.5412807,4.24584076 C25.5696221,4.9473816 26.5227524,5.6739775 26.8741937,6.83486051 C27.2447795,8.06046907 26.7853078,9.53384401 25.6455171,10.7761559 C25.3036482,11.1481535 25.0233158,11.4341983 24.7573418,11.7052798 C24.3594065,12.1117281 24.1747973,12.1917406 23.9560012,12 C23.7358377,11.8072155 23.6182348,11.3541614 24.0141189,10.9501491 C24.2725718,10.6863753 24.5460668,10.4079861 24.8783634,10.0460801 C25.2079249,9.68695797 26.2540436,8.4164592 25.8704667,7.14944029 C25.6202187,6.32297227 24.8222969,5.72443548 23.9560012,5.13355434 C23.0281692,4.49952292 22.1194819,3.94552833 21.2217343,4.09516251 C20.4046678,4.23331319 19.7503309,4.93589796 19.0966776,5.70564413 C16.5647971,8.68719271 14.1047089,11.7992362 11.784787,14.9554739 C11.3916379,15.4896332 11.0654949,15.9726386 11.0511364,16.4786109 C11.0333593,17.1241259 11.5222317,17.7257946 12.0699055,18.336511 C12.7686855,19.1163488 13.4654142,19.8245014 14.3002578,19.9205457 C14.8397269,19.9800514 15.472868,19.7615159 16.0287467,19.3140052 C16.575053,18.8741502 17.0201663,18.2683056 17.4502373,17.6822964 C17.6232229,17.4456655 17.9527844,17.3962514 18.1852553,17.5744205 C18.4177261,17.7508497 18.464904,18.0859607 18.2912346,18.3225916 C17.8208231,18.9632348 17.3340019,19.6258011 16.6796649,20.1526527 C15.9931925,20.7052554 15.2260388,21 14.4896533,21 Z" id="Shape" fill="#FFFFFF" fill-rule="nonzero"></path>
                <path d="M12.1819805,17.6819805 L12.1819805,21.6819805 C12.1819805,22.2342653 11.7342653,22.6819805 11.1819805,22.6819805 L9.18198052,22.6819805 C8.62969577,22.6819805 8.18198052,22.2342653 8.18198052,21.6819805 L8.18198052,17.6819805" id="Rectangle" stroke="#FFFFFF" transform="translate(10.181981, 20.181981) rotate(-316.000000) translate(-10.181981, -20.181981) "></path>
                <path d="M25.433992,6 C25.3267909,6 25.2195899,5.96168563 25.1308717,5.88341951 C24.9300238,5.70527403 24.9035316,5.38827982 25.0704942,5.17476726 C25.3766949,4.785074 25.6588677,4.44450175 25.9410406,4.1039295 C26.2170525,3.77121657 26.4930644,3.43883119 26.7912559,3.0583072 C26.8682681,2.96006519 27.0728127,2.69939641 27.0518653,2.57135439 C27.0346145,2.46558053 26.8325344,2.30315377 26.735807,2.22488759 L25.5874003,1.29813811 C25.4746544,1.20710052 25.1758469,0.965097768 25.0273673,1.01192644 C24.950355,1.03583197 24.8363769,1.16289167 24.7538198,1.25589404 L22.8161916,3.42835205 C22.6362909,3.63040307 22.3362512,3.63760749 22.1477253,3.44767298 C21.9579671,3.25642852 21.9499578,2.93812451 22.1298584,2.73672839 L24.0674866,0.563615417 C24.2245916,0.387434779 24.4389937,0.147069319 24.761213,0.0462075533 C25.371766,-0.141434689 25.9022265,0.289520252 26.1591393,0.496810843 L27.3075459,1.42356032 C27.5299573,1.60236078 27.9014644,1.90232632 27.9840215,2.39746595 C28.0807489,2.9859355 27.7147867,3.45225751 27.5182514,3.70277463 C27.2132829,4.09083053 26.9323422,4.43009291 26.6507854,4.76935522 C26.3741574,5.10305054 26.0969133,5.43707334 25.7974897,5.81923469 C25.7038429,5.938435 25.5695336,6 25.433992,6 Z" id="Shape" fill="#FFFFFF" fill-rule="nonzero"></path>
                <path d="M22.3784275,20 C21.9826742,19.9996556 21.5943497,19.9476516 21.2229089,19.8446769 C19.885722,19.4737611 18.7538407,18.4478017 18.2689416,17.1669885 C17.7631068,15.8310717 17.9825945,14.2585539 18.8281288,13.1602712 C19.5534514,12.2173116 19.961361,12.0141173 20.8541696,11.5695004 L21.0142268,11.4896002 C22.2149935,10.8882827 23.6203905,10.8342123 24.7063483,11.3642396 C25.505959,11.7547861 26.1705004,12.4577008 26.5777346,13.3441793 C27.3226422,14.9628462 27.065335,16.9703376 25.9375057,18.3396609 C25.0811658,19.3790518 23.7507324,20 22.3784275,20 Z M23.0578265,12.0533785 C22.5243024,12.0533785 21.9759208,12.1870046 21.4707612,12.4394478 L21.3093534,12.5200367 C20.4530134,12.9467449 20.2227202,13.0614291 19.6439479,13.8135927 C19.0199273,14.6243038 18.8598701,15.7907772 19.2367137,16.7857407 C19.6047778,17.7590073 20.4698971,18.5397558 21.4950738,18.8238835 C21.7773687,18.9020616 22.0745214,18.9416673 22.3784275,18.9420117 C23.448177,18.9420117 24.4814578,18.4622664 25.1432978,17.6591321 C26.002339,16.6162973 26.2062938,15.0265597 25.6390024,13.7936176 C25.3323949,13.1275534 24.842093,12.6037252 24.257918,12.3182199 C23.8986334,12.1425774 23.494776,12.0533785 23.0578265,12.0533785 Z" id="Shape" fill="#FFFFFF" fill-rule="nonzero"></path>
                <path d="M17.599079,31.7576234 C17.3975856,31.7576234 16.9706537,31.1808436 16.8800165,31 C16.7545189,30.7506501 16.1661492,31.0698051 16.4338775,30.9529223 C18.2375573,30.1655869 21.5793657,27.8263076 22.334443,26.1100786 C23.0909148,24.3935249 23.1278669,22.4113877 22.4369328,20.6714575 C22.334443,20.4130166 22.4759765,20.1263291 22.7527684,20.0305502 C23.0295604,19.9363945 23.3391213,20.0669137 23.4409138,20.3253545 C24.2245767,22.2971023 24.1827442,24.5435246 23.3258743,26.488649 C22.4697016,28.4331241 18.9242334,30.8650934 16.8800165,31.7576234 C16.8068095,31.7897661 17.6750748,31.7576234 17.599079,31.7576234 Z" id="Shape" fill="#FFFFFF" fill-rule="nonzero"></path>
                <path d="M19.5848983,34 C19.3841302,34 19.189446,33.9091317 19.0806967,33.7458369 C18.9171925,33.5003919 19.0099716,33.1848676 19.2883092,33.0406853 C20.8077582,32.254054 22.5294963,31.3624714 23.6291576,30.0681847 C24.6413632,28.8775079 25.1105825,27.3632594 25.4056506,26.1769416 C25.7372221,24.8390648 25.8665045,23.8136945 25.8246778,22.8530387 C25.7729648,21.6814744 25.437591,20.6208969 24.8542989,19.7853107 C24.6854712,19.5432187 24.7706455,19.2260179 25.0451807,19.076806 C25.3212367,18.9269236 25.6794251,19.0033737 25.8490133,19.2454657 C26.5372523,20.2312696 26.9327045,21.4652011 26.9912618,22.8134724 C27.0376514,23.8646613 26.9007642,24.97017 26.5463781,26.3972386 C26.2262139,27.6854899 25.7106051,29.3368791 24.5645541,30.685821 C23.3234426,32.146085 21.4937156,33.0933286 19.8799665,33.9292501 C19.7871872,33.9771991 19.6852822,34 19.5848983,34 Z" id="Shape" fill="#FFFFFF" fill-rule="nonzero"></path>
                <path d="M13.9400742,43 C13.9393857,43 13.9393857,43 13.9386973,43 C10.0892897,43 6.23230861,42.9463461 3.6745284,42.9015753 C2.88963754,42.8877176 1.91334353,42.8703067 1.08301163,42.3508232 C0.36421684,41.9013384 0,41.0670378 0,39.8703068 C0.000688527165,38.6732205 0.366282422,37.8804928 1.1167482,37.4459316 C1.82796947,37.0344664 2.63764633,37 3.34129402,37 L3.55472926,37.0007106 L24.8941208,37.1456828 C25.3340727,37.1488807 25.8332358,37.1520787 26.3172518,37.3574559 C27.0725371,37.6786687 27.6412387,38.4522089 27.8381499,39.4268625 C27.9710306,40.0824351 28.2484964,41.446879 27.500096,42.1529077 C27.1875167,42.4488925 26.6029796,43 13.9400742,43 Z M3.34129402,38.0915551 C2.74574086,38.0915551 2.1233362,38.1150065 1.63450074,38.3981997 C1.38732901,38.5410399 1.05822564,38.8494611 1.05753712,39.8706621 C1.05753712,40.6697856 1.24480931,41.1757669 1.63105825,41.4170318 C2.17428531,41.7567215 2.85658958,41.7950965 3.6924294,41.8100201 C6.24607859,41.8551463 10.0961747,41.9084449 13.9386972,41.9084449 C24.9705443,41.9088002 26.5850785,41.4603814 26.8171033,41.322871 C26.9878515,41.1580007 26.9933595,40.5869951 26.8026448,39.6503613 C26.7062547,39.1710293 26.4219039,38.5826128 25.9151673,38.3669312 C25.6211775,38.2422125 25.2480101,38.2397252 24.8872358,38.2372379 L3.34129402,38.0915551 Z" id="Shape" fill="#FFFFFF" fill-rule="nonzero"></path>
                <path d="M20.4925727,38 C20.2990094,38 20.1140342,37.8862793 20.0294741,37.694502 C19.2188863,35.8510837 18.2279478,34.0826943 17.083744,32.4387919 C16.7369155,31.9398342 16.3557344,31.4297736 15.8596045,31.1555656 C15.4605865,30.9355263 14.9783298,30.8601611 14.4676661,30.7800856 C14.2430533,30.7447582 14.0184406,30.7094307 13.7984522,30.6623276 C12.0477941,30.2892028 10.7714651,29.0190981 9.53675565,27.7907133 L9.32403418,27.5797582 C8.20889795,26.4741783 6.99070407,25.3611965 5.49042307,24.0772973 C4.9652256,23.6274616 4.26231983,23.1029335 3.48410274,23.0379984 C2.88161207,22.9865213 2.14633561,23.3360945 2.03204737,23.9376699 C1.9256866,24.4931514 2.3583965,25.0863156 2.62528926,25.3908043 C3.41737948,26.2928309 4.46909564,26.9149299 5.58291064,27.5737021 C6.94049648,28.376812 8.34432622,29.2071746 9.2487228,30.5957102 C10.5838474,32.6480648 10.402836,35.3366494 10.2707108,37.2995079 C10.250892,37.5848188 9.99919362,37.8051946 9.72965833,37.7796242 C9.45021367,37.76011 9.23947402,37.513491 9.25863216,37.228853 C9.41718233,34.8750378 9.46210491,32.7944212 8.40312186,31.1670049 C7.63018978,29.9796673 6.38821341,29.2451935 5.07356819,28.4673175 C3.94059506,27.7971059 2.768645,27.1040157 1.86953342,26.079857 C1.18116143,25.2965977 0.892467996,24.4874317 1.03582374,23.7401728 C1.26043652,22.5588913 2.51364348,21.9213156 3.56734153,22.0077836 C4.63094894,22.0966068 5.50231431,22.737547 6.14312125,23.2859631 C7.66256046,24.5866849 8.89859118,25.71548 10.0322249,26.8388918 L10.245607,27.0515292 C11.3765983,28.1762868 12.5452452,29.3393999 14.0058887,29.6509541 C14.2087008,29.6940199 14.4154767,29.7259828 14.6215919,29.7586186 C15.1956757,29.8484512 15.7889175,29.9413118 16.3431826,30.2468098 C17.030894,30.6270001 17.5138114,31.2689497 17.9115081,31.8412538 C19.0940281,33.5399978 20.117998,35.3672663 20.9556714,37.2719187 C21.0699597,37.5323323 20.9556714,37.8381667 20.7000093,37.9549154 C20.6326254,37.9855326 20.5619385,38 20.4925727,38 Z" id="Shape" fill="#FFFFFF" fill-rule="nonzero"></path>
                <path d="M3.33692835,35 C2.2842805,35 1.35543874,34.2583257 1.07939267,33.1971171 C0.925375515,32.6091742 0.998237472,31.9963786 1.2736912,31.5579067 C1.60956699,31.0225095 2.15928966,30.8599021 2.52300705,30.7526806 L4.43815082,30.186395 C4.73374524,30.0990556 5.0684363,30 5.42326804,30 L5.52693339,30.0028403 C6.02275006,30.0298232 6.45814467,30.2783499 6.72056611,30.6841582 C7.06710467,31.2202656 7.09376147,32.0340126 6.78691195,32.7085848 C6.53278369,33.2688348 6.1198993,33.6501456 5.75025819,33.9494426 C4.88006142,34.6545481 4.09220459,34.9982248 3.34166728,35 L3.33692835,35 Z M5.42326804,31.0906767 C5.1792101,31.0906767 4.91323441,31.1691401 4.65614429,31.2451182 L2.74100052,31.8114038 C2.42526542,31.9047788 2.13144813,32.0056095 2.00053358,32.2140168 C1.90397668,32.3677483 1.8832436,32.6255059 1.94781231,32.8711921 C2.12315488,33.5457643 2.79431413,33.9093232 3.33752068,33.9093232 L3.33692829,34.4546616 L3.34048254,33.9093232 C3.90382978,33.9079031 4.52522968,33.6256479 5.24081695,33.0458709 C5.51982488,32.8197116 5.8272668,32.5410069 5.98839241,32.1866789 C6.12049169,31.8959029 6.12582308,31.5447703 6.00142464,31.3523397 C5.90427535,31.2018036 5.71116161,31.1045232 5.48487489,31.0920968 L5.42326804,31.0906767 Z" id="Shape" fill="#FFFFFF" fill-rule="nonzero"></path>
                <path d="M9.52063309,34 C9.50938074,34 9.49875347,33.9997324 9.48750112,33.9989295 L6.44748517,33.8214877 C6.18305445,33.8062325 5.98301227,33.6100563 6.00114108,33.3836374 C6.0186448,33.1566832 6.2555697,32.9821854 6.51249888,33.0014551 L9.55251483,33.1788969 C9.81694555,33.1941521 10.0169877,33.3903283 9.99885892,33.6167472 C9.98198035,33.8337989 9.77068582,34 9.52063309,34 Z" id="Shape" fill="#FFFFFF" fill-rule="nonzero"></path>
                <path d="M11.7912898,38 C11.6489288,38 11.5045045,37.9703738 11.3745227,37.9075181 C11.0031461,37.7285597 10.8886384,37.349424 11.1186855,37.0607685 L12.5340429,35.291202 C12.7651216,35.0033472 13.2530692,34.9124667 13.6254773,35.0930266 C13.9968539,35.271985 14.1113616,35.6511207 13.8813145,35.9397762 L12.4659571,37.7093427 C12.3153434,37.8967085 12.0564114,38 11.7912898,38 Z" id="Shape" fill="#FFFFFF" fill-rule="nonzero"></path>
                <path d="M14.7228443,38 C14.5439957,38 14.3660884,37.9470099 14.2258334,37.839886 C13.9359104,37.6176325 13.9236734,37.2467017 14.1975942,37.0118678 C14.7793228,36.5143707 15.2593901,35.949397 15.6255591,35.3325768 C15.7978185,35.0413217 16.2261139,34.9170428 16.5904003,35.0584768 C16.9499801,35.198386 17.1015307,35.5483495 16.92833,35.8396045 C16.4972107,36.5662172 15.9324257,37.2314527 15.2480943,37.8170126 C15.1059568,37.9386229 14.9148712,38 14.7228443,38 Z" id="Shape" fill="#FFFFFF" fill-rule="nonzero"></path>
                <path d="M17.7393784,38 C17.5497216,38 17.359102,37.9367076 17.2146932,37.8101229 C16.9268383,37.5577917 16.9287637,37.1503731 17.2185441,36.8997185 C17.7615212,36.4294268 18.2332565,35.8975193 18.6221974,35.3190857 C18.8282207,35.0118451 19.2797388,34.9087331 19.6340217,35.0881313 C19.9863791,35.2675296 20.1047943,35.6619543 19.8987711,35.9687756 C19.4453276,36.6436149 18.8946487,37.2639641 18.2602128,37.8126377 C18.1167667,37.9375459 17.9280725,38 17.7393784,38 Z" id="Shape" fill="#FFFFFF" fill-rule="nonzero"></path>
                <circle id="Oval" stroke="#FFFFFF" cx="22.5" cy="15.5" r="1.5"></circle>
            </g>
        </g>
    </g>
</svg>