
<svg width="220px" height="364px" viewBox="0 0 220 364" version="1.1" xmlns="http://www.w3.org/2000/svg" xmlns:xlink="http://www.w3.org/1999/xlink">
    <g id="Page-1" stroke="none" stroke-width="1" fill="none" fill-rule="evenodd">
        <g id="Group">
            <rect id="neck" stroke="#494949" fill="#FEFDFD" x="81.5" y="167.5" width="57" height="43"></rect>
            <ellipse id="head" stroke="#494949" fill="#FEFDFD" fill-rule="nonzero" cx="111" cy="100" rx="61" ry="87"></ellipse>
            <path d="M51,203 L169,203 C197.166522,203 220,225.833478 220,254 L0,254 C-3.44940413e-15,225.833478 22.8334778,203 51,203 Z" id="shirt" fill="#000000" fill-rule="nonzero"></path>
            <path d="M111.424051,202.71156 L138.992538,217.580958 L80.9953308,217.580958 L108.576244,202.711302 C109.465063,202.232114 110.535318,202.232211 111.424051,202.71156 Z" id="v-line" fill="#FEFDFD" transform="translate(109.993935, 209.980369) scale(1, -1) translate(-109.993935, -209.980369) "></path>
            <path d="M208,289 L219,289 L219,305 C219,311.627417 214.075132,317 208,317" id="left-arm" stroke="#535353" fill="#FEFDFD" fill-rule="nonzero"></path>
            <path d="M1,289 L13,289 L13,305 C13,311.627417 7.627417,317 1,317" id="right-arm" stroke="#535353" fill="#FEFDFD" fill-rule="nonzero" transform="translate(7.000000, 303.000000) scale(-1, 1) translate(-7.000000, -303.000000) "></path>
            <rect id="right-shirt-arm" fill="#000000" fill-rule="nonzero" x="0" y="253" width="43" height="36"></rect>
            <rect id="left-shirt-arm" fill="#000000" fill-rule="nonzero" x="177" y="253" width="43" height="36"></rect>
            <g id="laptop" transform="translate(12.000000, 254.000000)" fill-rule="nonzero">
                <path d="M6,5.68434189e-14 L190,5.68434189e-14 C193.313708,5.68434189e-14 196,2.686292 196,6 L196,110 L0,110 L0,6 C0,2.686292 2.6862915,5.68434189e-14 6,5.68434189e-14 Z" id="Rectangle" fill="#E1E1E1"></path>
                <circle id="Oval-6" fill="#FBFBFB" cx="98" cy="55" r="7"></circle>
            </g>
            <g id="eyes" transform="translate(83.000000, 85.000000)" fill="#535353" fill-rule="nonzero">
                <circle id="Oval-8" cx="51" cy="4" r="4"></circle>
                <circle id="Oval-8" cx="4" cy="4" r="4"></circle>
            </g>
            <g id="beard" transform="translate(52.000000, 83.000000)" fill-rule="nonzero">
                <path d="M57.065918,64.766113 L58.0996094,103.506836 C31.8862305,102.757324 10.9673055,80.573222 1.4116821,43.362244 L5.8725586,27.86084" id="Path-22" fill="#F4F4F4"></path>
                <polyline id="Path-21" stroke="#535353" fill="#656363" points="2.3695779 3.5764787 3.1928748 12.8762612 1.5423348 11.7672502 1.1637366 6.2574783"></polyline>
                <polyline id="Path-21" stroke="#555454" fill="#504E4E" transform="translate(114.199386, 12.500000) scale(-1, 1) translate(-114.199386, -12.500000) " points="114.575475 1.42108547e-14 115.398772 25 113.748232 22.018718 113 4.1971474"></polyline>
                <polyline id="Path-21" stroke="#555454" fill="#504E4E" points="4.5754747 1.42108547e-14 5.3987715 25 3.7482315 22.018718 3 4.1971474"></polyline>
                <path d="M23.4866568,49.9201448 C35.1498765,49.9201448 42.1835019,40.3327718 43.4007355,37.1473388 C44.617969,33.9619048 34.9268953,38.5453738 23.2636756,38.5453738 C11.6004558,38.5453738 -0.830564948,38.9926088 -0.830564948,42.3063178 C-0.830564948,45.6200258 11.8234371,49.9201448 23.4866568,49.9201448 Z" id="Oval-15" fill="#FEFDFD" transform="translate(21.336825, 42.970606) rotate(45.000000) translate(-21.336825, -42.970606) "></path>
                <path d="M40.4759926,39.013733 C47.4442077,39.570049 52.596278,39.848208 55.932203,39.848208 C59.729092,39.848208 59.729092,44.032379 55.932203,52.400723 C57.560474,52.35552 56.799335,52.35552 53.648788,52.400723 C46.2315927,51.745197 32.6410428,51.665463 31.8841749,53.360666 C28.9224647,59.994189 25.3807559,59.994189 21.2590486,53.360666 L35.2376376,40.787138 C36.6663255,39.502056 38.5604774,38.860805 40.4759926,39.013733 Z" id="Rectangle-14" fill="#F4F4F4"></path>
                <rect id="Rectangle-12" fill="#F4F4F4" x="3" y="22" width="3" height="27"></rect>
                <rect id="Rectangle-12" fill="#F4F4F4" x="112" y="22" width="3" height="27"></rect>
                <path d="M117.065918,64.766113 L115.902656,103.481517 C88.3020498,104.896858 66.825787,80.573222 56.411682,43.362244 L61.273326,27.86084" id="Path-22" fill="#F4F4F4" transform="translate(86.738800, 65.700498) scale(-1, 1) translate(-86.738800, -65.700498) "></path>
                <path d="M97.5298167,48.8977981 C109.920487,48.8977981 117.392809,39.3104241 118.685963,36.1249911 C119.979117,32.9395581 109.683598,37.5230271 97.2929277,37.5230271 C84.9022577,37.5230271 71.6958977,37.9702621 71.6958977,41.2839701 C71.6958977,44.5976791 85.1391467,48.8977981 97.5298167,48.8977981 Z" id="Oval-15" fill="#FEFDFD" transform="translate(95.245897, 41.948259) scale(-1, 1) rotate(45.000000) translate(-95.245897, -41.948259) "></path>
                <path d="M74.5072105,38.942885 C83.5035955,39.546433 90.1095375,39.848208 94.3250375,39.848208 C98.9314795,39.848208 98.9314795,44.032379 94.3250375,52.400723 C96.3004795,52.35552 95.3770555,52.35552 91.5547645,52.400723 C82.5561115,51.745197 66.0678535,51.665463 65.1496105,53.360666 C61.5564195,59.994189 57.2595655,59.994189 52.2590485,53.360666 L69.8696425,40.304074 C71.2048625,39.314134 72.8487745,38.831624 74.5072105,38.942885 Z" id="Rectangle-14" fill="#F4F4F4" transform="translate(75.019459, 48.631493) scale(-1, 1) translate(-75.019459, -48.631493) "></path>
            </g>
            <g id="mouth" transform="translate(84.000000, 133.000000)" fill-rule="nonzero">
                <path d="M26,16 C41.463973,16 53,8.418278 53,4 C53,-0.418278 41.463973,1 26,1 C10.536027,1 0,-0.418278 0,4 C0,8.418278 10.536027,16 26,16 Z" id="Oval-5" fill="#FEFDFD"></path>
                <path d="M25.764157,13 C37.909075,13 48.449075,8.354034 48.449075,4.909949 C48.449075,1.465863 37.909075,4.086815 25.764157,4.086815 C13.6192399,4.086815 3.6,1.465863 3.6,4.909949 C3.6,8.354034 13.6192399,13 25.764157,13 Z" id="Oval-10" stroke="#535353" fill="#FFFFFF"></path>
            </g>
            <g id="hair" transform="translate(50.000000, 0.000000)" fill="#504E4E" fill-rule="nonzero" stroke="#555454">
                <path d="M120.697266,97.171875 L117.832031,89.479248 L114.851563,79.9343262 L114.558044,78.4087372 L114.286987,76.7233658 L112.302734,71.1699829 L111.133301,65.7086792 L109.486328,61.0565186 L107.145508,54.9525146 L103.664551,47.9564209 L100.006348,43.3905029 L97.1484375,38.2994385 L93.8920898,35.0354004 L87.8017578,29.8520508 L85.1186523,27.477356 L81.4897461,25.387207 C79.5581055,23.3199463 78.5922852,22.2863159 78.5922852,22.2863159 C78.5922852,22.2863159 77.5255534,22.2863159 75.3920898,22.2863159 C73.9864909,24.3535767 73.0725911,25.387207 72.6503906,25.387207 C72.0170898,25.387207 71.2099609,25.387207 69.6611328,25.387207 C68.1123047,25.387207 65.1484375,25.387207 63.9287109,25.387207 C62.7089844,25.387207 62.190918,25.2405396 59.765625,23.7634277 C57.340332,22.2863159 54.9750977,22.2863159 54.9750977,22.2863159 C54.9750977,22.2863159 52.7612305,23.7634277 51.6914062,23.7634277 C50.621582,23.7634277 48.0786133,23.7634277 47.2402344,23.7634277 C46.6813151,23.7634277 45.7490234,23.2710571 44.4433594,22.2863159 L41.6474609,22.2863159 L39.8574219,22.2863159 L38.8540039,24.6489258 L37.2563477,25.387207 L31.7666016,29.8520508 L27.309082,32.7485962 L24.4438477,38.2994385 L22.565918,42.0501709 C20.1857096,45.442749 18.9956055,47.1390381 18.9956055,47.1390381 C18.9956055,47.1390381 17.5730794,49.7435303 14.7280273,54.9525146 C13.1013997,58.1369019 12.2880859,59.7290955 12.2880859,59.7290955 C12.2880859,59.7290955 11.0849609,61.72229 8.67871094,65.7086792 L7.31005859,73.557312 L6.61214088,84.4739292 L4.27929688,87.6851807 C3.49479167,90.2493896 3.10253906,91.5314941 3.10253906,91.5314941 C3.10253906,91.5314941 3.10253906,92.1253052 3.10253906,93.3129272 L2.20263672,96.4226074 L0.975097656,97.9810181 L0.975097656,89.479248 L2.20263672,81.2422485 L2.20263672,76.7233658 L5.35498047,67.163269 L5.35498047,59.7290955 L6.08544922,56.9871826 C6.41422526,51.2757568 6.82242839,47.993042 7.31005859,47.1390381 C7.7976888,46.2850342 9.45703125,43.8517456 12.2880859,39.8391724 L13.2119141,39.8391724 L14.7280273,32.7485962 L15.7426758,30.7369995 L20.8637695,27.477356 L27.309082,20.9393921 C31.2390951,19.1900024 33.2041016,19.1900024 33.2041016,20.9393921 C33.2041016,22.6887817 34.0568034,21.8140869 35.762207,18.3153076 C36.7583008,15.8741455 37.2563477,14.6535645 37.2563477,14.6535645 C37.2563477,14.6535645 38.7200521,13.5518188 41.6474609,11.3483276 L44.4433594,9.57623291 L47.2402344,4.83563232 L49.1464844,6.96697998 C51.7135417,5.54608154 52.9970703,4.83563232 52.9970703,4.83563232 C52.9970703,4.83563232 53.6564128,3.87762451 54.9750977,1.96160889 L56.3886719,3.33215332 L58.4726563,6.11993408 L63.9287109,1.96160889 L64.6196289,4.09350586 L68.3017578,6.96697998 L73.2871094,0.682800293 L75.3920898,1.96160889 L78.5922852,3.33215332 L82.9243164,4.83563232 L84.21875,6.96697998 L83.5727539,11.3483276 L81.4897461,13.1671143 L83.5727539,14.6535645 L84.21875,17.3737793 C86.6318359,18.0014648 88.0841471,18.3153076 88.5756836,18.3153076 C89.0672201,18.3153076 90.8393555,19.6389771 93.8920898,22.2863159 L97.1484375,25.387207 L97.8427734,27.477356 C98.3111979,29.0604858 98.5454102,29.8520508 98.5454102,29.8520508 C98.5454102,29.8520508 102.231934,30.7369995 102.231934,30.7369995 C102.231934,30.7369995 102.709473,31.4075317 103.664551,32.7485962 L105.314453,36.4152832 L108.293945,40.6483154 L111.133301,44.7676392 L113.050293,51.5280762 L114.851562,58.3665161 L118.556641,65.7086792 L118.556641,70.3855591 L121.744629,78.4087372 L120.697266,83.7745972 L120.697266,86.007019 L120.697266,88.4778442 C120.697266,89.9749146 120.697266,90.9927979 120.697266,91.5314941 C120.697266,92.0701904 120.697266,93.7005615 120.697266,96.4226074" id="Path-20"></path>
            </g>
            <g id="eyebrows" transform="translate(72.000000, 71.000000)" stroke="#464545">
                <path d="M0.715049,3.1417264 C8.043174,-0.488482 17.2034465,-0.8388824 28.1958664,2.090525" id="Path-12"></path>
                <path d="M50.71505,3.1417264 C58.043175,-0.488482 67.203447,-0.8388824 78.195867,2.090525" id="Path-12" transform="translate(64.455458, 1.634960) scale(-1, 1) translate(-64.455458, -1.634960) "></path>
            </g>
            <g id="ears" transform="translate(46.000000, 81.000000)">
                <path d="M-7.10542736e-15,7.8854801 C-7.10542736e-15,4.6192392 2.0147186,0.6992188 4.5,0.6992188 C6.9852814,0.6992188 9,4.6192392 9,7.8854801 L7.4217352,40.669963 C7.4217352,42.847457 5.7634277,47.383861 -7.10542736e-15,44.026912" id="Rectangle-11" stroke="#494949" fill="#FEFDFD" fill-rule="nonzero" transform="translate(4.500000, 22.962199) scale(-1, 1) translate(-4.500000, -22.962199) "></path>
                <path d="M3.65630694,8.1837829 C4.70374114,9.3195855 5.05288584,11.9678147 4.70374114,16.1284704" id="Path-18" stroke="#535353" transform="translate(4.245489, 12.156127) scale(-1, 1) translate(-4.245489, -12.156127) "></path>
                <path d="M121,7.8854801 C121,4.6192392 123.014719,0.6992188 125.5,0.6992188 C127.985281,0.6992188 130,4.6192392 130,7.8854801 L128.421735,40.669963 C128.421735,42.847457 126.763428,47.383861 121,44.026912" id="Rectangle-11" stroke="#494949" fill="#FEFDFD" fill-rule="nonzero"></path>
                <path d="M124.656308,8.1837829 C125.703742,9.3195855 126.052887,11.9678147 125.703742,16.1284704" id="Path-18" stroke="#535353"></path>
            </g>
            <g id="nose" transform="translate(99.000000, 116.000000)" stroke="#535353">
                <path d="M0.191580405,0.4 L3.06554071,0.4" id="Path-16"></path>
                <path d="M19.1389488,0.4 L22.0129091,0.4" id="Path-16"></path>
                <path d="M2.5900277,0 C2.5900277,2.209139 6.35530055,4 11,4 C15.6446994,4 19.4099723,2.209139 19.4099723,0" id="Oval-9"></path>
            </g>
        </g>
    </g>
</svg>