<?xml version="1.0" encoding="UTF-8"?>
<svg width="859px" height="597px" viewBox="0 0 859 597" version="1.1" xmlns="http://www.w3.org/2000/svg" xmlns:xlink="http://www.w3.org/1999/xlink">
    <!-- Generator: Sketch 52 (66869) - http://www.bohemiancoding.com/sketch -->
    <title>Group 6</title>
    <desc>Created with Sketch.</desc>
    <g id="onboarding-dash" stroke="none" stroke-width="1" fill="none" fill-rule="evenodd">
        <g id="landingpage" transform="translate(-275.000000, -3651.000000)">
            <g id="Group-6" transform="translate(275.000000, 3650.000000)">
                <path d="M2,8.5 C1.17157288,8.5 0.5,9.17157288 0.5,10 L0.5,63 C0.5,63.8284271 1.17157288,64.5 2,64.5 L138,64.5 C138.828427,64.5 139.5,63.8284271 139.5,63 L139.5,10 C139.5,9.17157288 138.828427,8.5 138,8.5 L2,8.5 Z" id="Rectangle" stroke="#1D1D1D" fill="#FFFFFF"></path>
                <path id="Line" d="M207,37 L162.5,37 L162,37 L162,36 L162.5,36 L207,36 L207,32 L216,36.5 L207,41 L207,37 Z" fill="#323232" fill-rule="nonzero"></path>
                <path id="Line" d="M446,37 L401.5,37 L401,37 L401,36 L401.5,36 L446,36 L446,32 L455,36.5 L446,41 L446,37 Z" fill="#323232" fill-rule="nonzero"></path>
                <path id="Line" d="M395.75,220.75 L395.75,184.5 L395.75,184 L396.75,184 L396.75,184.5 L396.75,220.75 L400.75,220.75 L396.25,229.75 L391.75,220.75 L395.75,220.75 Z" fill="#323232" fill-rule="nonzero"></path>
                <path id="Line" d="M394,112.23913 L394,105.173913 L394,104.673913 L395,104.673913 L395,105.173913 L395,112.23913 L399,112.23913 L394.5,121.23913 L390,112.23913 L394,112.23913 Z" fill="#323232" fill-rule="nonzero"></path>
                <path id="Line" d="M627,112.23913 L627,105.173913 L627,104.673913 L628,104.673913 L628,105.173913 L628,112.23913 L632,112.23913 L627.5,121.23913 L623,112.23913 L627,112.23913 Z" fill="#323232" fill-rule="nonzero"></path>
                <path id="Line" d="M395.75,330.75 L395.75,294.5 L395.75,294 L396.75,294 L396.75,294.5 L396.75,330.75 L400.75,330.75 L396.25,339.75 L391.75,330.75 L395.75,330.75 Z" fill="#323232" fill-rule="nonzero"></path>
                <path id="Line" d="M473.5,569.505435 L469,560.505435 L478,560.505435 L473.5,569.505435 Z M473,509.663043 L473,509.163043 L474,509.163043 L474,509.663043 L474,511.663043 L474,512.163043 L473,512.163043 L473,511.663043 L473,509.663043 Z M473,513.663043 L473,513.163043 L474,513.163043 L474,513.663043 L474,515.663043 L474,516.163043 L473,516.163043 L473,515.663043 L473,513.663043 Z M473,517.663043 L473,517.163043 L474,517.163043 L474,517.663043 L474,519.663043 L474,520.163043 L473,520.163043 L473,519.663043 L473,517.663043 Z M473,521.663043 L473,521.163043 L474,521.163043 L474,521.663043 L474,523.663043 L474,524.163043 L473,524.163043 L473,523.663043 L473,521.663043 Z M473,525.663043 L473,525.163043 L474,525.163043 L474,525.663043 L474,527.663043 L474,528.163043 L473,528.163043 L473,527.663043 L473,525.663043 Z M473,529.663043 L473,529.163043 L474,529.163043 L474,529.663043 L474,531.663043 L474,532.163043 L473,532.163043 L473,531.663043 L473,529.663043 Z M473,533.663043 L473,533.163043 L474,533.163043 L474,533.663043 L474,535.663043 L474,536.163043 L473,536.163043 L473,535.663043 L473,533.663043 Z M473,537.663043 L473,537.163043 L474,537.163043 L474,537.663043 L474,539.663043 L474,540.163043 L473,540.163043 L473,539.663043 L473,537.663043 Z M473,541.663043 L473,541.163043 L474,541.163043 L474,541.663043 L474,543.663043 L474,544.163043 L473,544.163043 L473,543.663043 L473,541.663043 Z M473,545.663043 L473,545.163043 L474,545.163043 L474,545.663043 L474,547.663043 L474,548.163043 L473,548.163043 L473,547.663043 L473,545.663043 Z M473,549.663043 L473,549.163043 L474,549.163043 L474,549.663043 L474,551.663043 L474,552.163043 L473,552.163043 L473,551.663043 L473,549.663043 Z M473,553.663043 L473,553.163043 L474,553.163043 L474,553.663043 L474,555.663043 L474,556.163043 L473,556.163043 L473,555.663043 L473,553.663043 Z M473,557.663043 L473,557.163043 L474,557.163043 L474,557.663043 L474,559.663043 L474,560.163043 L473,560.163043 L473,559.663043 L473,557.663043 Z" fill="#323232" fill-rule="nonzero"></path>
                <path id="Line" d="M627.75,220.75 L627.75,184.5 L627.75,184 L628.75,184 L628.75,184.5 L628.75,220.75 L632.75,220.75 L628.25,229.75 L623.75,220.75 L627.75,220.75 Z" fill="#323232" fill-rule="nonzero"></path>
                <path d="M559.5,267.5 L530.5,267.5" id="Line-3" stroke="#979797" stroke-linecap="square"></path>
                <path d="M553,341.5 L531,341.5" id="Line-3" stroke="#979797" stroke-linecap="square"></path>
                <circle id="Oval-2" fill="#323232" cx="551.5" cy="341.5" r="2.5"></circle>
                <circle id="Oval-2" fill="#323232" cx="551.5" cy="411.5" r="2.5"></circle>
                <text id="Sets-subtasks-to-In" font-family="Roboto-Regular, Roboto" font-size="9" font-weight="normal" fill="#222222">
                    <tspan x="36.543457" y="32">Sets subtasks to </tspan>
                    <tspan x="47.3825684" y="43">In Progress</tspan>
                </text>
                <text id="Client-receives-emai" font-family="Roboto-Regular, Roboto" font-size="9" font-weight="normal" fill="#222222">
                    <tspan x="265.77832" y="32">Client receives email </tspan>
                    <tspan x="265.378418" y="43">notification reminder</tspan>
                </text>
                <text id="YES" font-family="Roboto-Regular, Roboto" font-size="9" font-weight="normal" fill="#222222">
                    <tspan x="387.317383" y="160">YES</tspan>
                </text>
                <text id="NO" font-family="Roboto-Regular, Roboto" font-size="9" font-weight="normal" fill="#222222">
                    <tspan x="622.222412" y="160">NO</tspan>
                </text>
                <text id="Auto-generated-emai" font-family="Roboto-Regular, Roboto" font-size="9" font-weight="normal" fill="#222222">
                    <tspan x="597.413086" y="259">Auto generated </tspan>
                    <tspan x="594.484131" y="270">emai notification  </tspan>
                    <tspan x="602.154785" y="281">sent to client</tspan>
                </text>
                <text id="Task-Completed?" font-family="Roboto-Regular, Roboto" font-size="9" font-weight="normal" fill="#222222">
                    <tspan x="498.72876" y="30">Task</tspan>
                    <tspan x="484.455322" y="41">Completed?</tspan>
                </text>
                <rect id="Rectangle-3" stroke="#323232" transform="translate(309.000000, 36.000000) rotate(-270.000000) translate(-309.000000, -36.000000) " x="281.5" y="-33.5" width="55" height="139" rx="1"></rect>
                <path d="M464.303419,129 C464.303419,128.745704 464.009413,128.5 463.606838,128.5 L327.196581,128.5 C326.794005,128.5 326.5,128.745704 326.5,129 L326.5,183 C326.5,183.254296 326.794005,183.5 327.196581,183.5 L463.606838,183.5 C464.009413,183.5 464.303419,183.254296 464.303419,183 L464.303419,129 Z" id="Rectangle-3" stroke="#323232"></path>
                <path d="M699.5,129 C699.5,128.746825 699.202108,128.5 698.793103,128.5 L561.206897,128.5 C560.797892,128.5 560.5,128.746825 560.5,129 L560.5,183 C560.5,183.253175 560.797892,183.5 561.206897,183.5 L698.793103,183.5 C699.202108,183.5 699.5,183.253175 699.5,183 L699.5,129 Z" id="Rectangle-3" stroke="#323232"></path>
                <path d="M699.5,239 C699.5,238.746825 699.202108,238.5 698.793103,238.5 L561.206897,238.5 C560.797892,238.5 560.5,238.746825 560.5,239 L560.5,293 C560.5,293.253175 560.797892,293.5 561.206897,293.5 L698.793103,293.5 C699.202108,293.5 699.5,293.253175 699.5,293 L699.5,239 Z" id="Rectangle-3" stroke="#323232"></path>
                <text id="Reminder-notificatio" font-family="Roboto-Bold, Roboto" font-size="9" font-weight="bold" fill="#222222">
                    <tspan x="585.914307" y="333">Reminder notification:</tspan>
                    <tspan x="676.085693" y="333" font-family="Roboto-Regular, Roboto" font-weight="normal"></tspan>
                    <tspan x="591.987549" y="344" font-family="Roboto-Regular, Roboto" font-weight="normal">&lt;task name&gt; is due </tspan>
                    <tspan x="611.347656" y="355" font-family="Roboto-Regular, Roboto" font-weight="normal">tomorrow</tspan>
                </text>
                <text id="Overdue:-&lt;task-name&gt;" font-family="Roboto-Bold, Roboto" font-size="9" font-weight="bold" fill="#222222">
                    <tspan x="612.929688" y="403">Overdue:</tspan>
                    <tspan x="580.724365" y="414" font-family="Roboto-Regular, Roboto" font-weight="normal">&lt;task name&gt; is past due.</tspan>
                </text>
                <path d="M699.5,314 C699.5,313.746825 699.202108,313.5 698.793103,313.5 L561.206897,313.5 C560.797892,313.5 560.5,313.746825 560.5,314 L560.5,368 C560.5,368.253175 560.797892,368.5 561.206897,368.5 L698.793103,368.5 C699.202108,368.5 699.5,368.253175 699.5,368 L699.5,314 Z" id="Rectangle-3" stroke="#323232"></path>
                <path d="M699.5,384 C699.5,383.746825 699.202108,383.5 698.793103,383.5 L561.206897,383.5 C560.797892,383.5 560.5,383.746825 560.5,384 L560.5,438 C560.5,438.253175 560.797892,438.5 561.206897,438.5 L698.793103,438.5 C699.202108,438.5 699.5,438.253175 699.5,438 L699.5,384 Z" id="Rectangle-3" stroke="#323232"></path>
                <text id="Auto-generated-alert" font-family="Roboto-Regular, Roboto" font-size="9" font-weight="normal" fill="#222222">
                    <tspan x="337.751709" y="264">Auto generated alert appears </tspan>
                    <tspan x="364.173828" y="275">in Access flyout</tspan>
                </text>
                <path d="M465.5,239 C465.5,238.745704 465.205995,238.5 464.803419,238.5 L328.393162,238.5 C327.990587,238.5 327.696581,238.745704 327.696581,239 L327.696581,293 C327.696581,293.254296 327.990587,293.5 328.393162,293.5 L464.803419,293.5 C465.205995,293.5 465.5,293.254296 465.5,293 L465.5,239 Z" id="Rectangle-3" stroke="#323232"></path>
                <text id="AM-marks-the-status" font-family="Roboto-Regular, Roboto" font-size="9" font-weight="normal" fill="#222222">
                    <tspan x="354.325684" y="372">AM marks the status  </tspan>
                    <tspan x="371.30835" y="383">“Completed”</tspan>
                </text>
                <path id="Path-10" d="M63.6104234,168.521868 C63.6101173,169.015696 63.610917,169.508638 63.6128225,170.000695 L62.61283,170.004568 C62.6109015,169.50658 62.6101022,169.007693 62.6104321,168.507905 L58.6044181,168.451968 L63.2296372,159.515674 L67.6035408,168.577625 L63.6104234,168.521868 Z M62.6267679,172.011838 L63.6267176,172.001809 C63.6334456,172.672615 63.6422491,173.341758 63.6531279,174.00924 L62.6532607,174.025536 C62.6423478,173.355963 62.6335169,172.68473 62.6267679,172.011838 Z M62.6920638,176.021237 L63.6918084,175.998639 C63.7068461,176.663912 63.7239662,177.327518 63.7431684,177.989456 L62.7435889,178.018453 C62.7243247,177.35438 62.7071497,176.688641 62.6920638,176.021237 Z M62.80798,180.015001 L63.8073501,179.979514 C63.8310418,180.646703 63.8568704,181.312181 63.884836,181.975948 L62.8857224,182.018042 C62.8576639,181.352071 62.8317498,180.68439 62.80798,180.015001 Z M62.9765883,184.016101 L63.9753977,183.967319 C64.0080444,184.635762 64.0428807,185.302452 64.0799068,185.967387 L63.0814535,186.022985 C63.0443008,185.355775 63.0093458,184.686813 62.9765883,184.016101 Z M63.1997367,188.023071 L64.1977823,187.96058 C64.2396726,188.629619 64.2838033,189.296863 64.3301744,189.962313 L63.3325935,190.031829 C63.2860591,189.364035 63.2417735,188.694449 63.1997367,188.023071 Z M63.4792961,192.034429 L64.4763563,191.957807 C64.5272102,192.619555 64.5803036,193.279509 64.6356366,193.93767 L63.6391521,194.021447 C63.5836184,193.360899 63.530333,192.69856 63.4792961,192.034429 Z M63.8150596,196.025729 L64.8109014,195.934629 C64.8713959,196.595917 64.9341765,197.255373 64.9992432,197.912998 L64.0041023,198.011459 C63.9387926,197.351378 63.8757784,196.689468 63.8150596,196.025729 Z M64.2079826,199.996216 L65.2023566,199.890289 C65.2726924,200.550561 65.3453586,201.208966 65.4203553,201.865505 L64.4268164,201.978997 C64.3515314,201.319935 64.2785868,200.659008 64.2079826,199.996216 Z M64.6645048,203.990002 L65.6571233,203.868724 C65.7384085,204.534013 65.8221146,205.197363 65.9082416,205.858773 L64.9166136,205.9879 C64.8301457,205.323872 64.7461094,204.657906 64.6645048,203.990002 Z M65.18141,207.960421 L66.1719828,207.823434 C66.2636498,208.486286 66.3577767,209.147168 66.4543636,209.806079 L65.4649372,209.951115 C65.3679568,209.289519 65.2734478,208.625955 65.18141,207.960421 Z M65.7630775,211.928609 L66.7512813,211.775464 C66.8535318,212.43526 66.9582785,213.093056 67.0655215,213.748853 L66.0786304,213.91024 C65.9709379,213.251695 65.8657536,212.591151 65.7630775,211.928609 Z M66.4114908,215.892993 L67.3969776,215.723241 C67.5099965,216.379367 67.625545,217.033467 67.7436231,217.68554 L66.7596257,217.863723 C66.6410385,217.208838 66.5249935,216.551928 66.4114908,215.892993 Z M67.1245905,219.830596 L68.1070044,219.64388 C68.2320753,220.301945 68.359755,220.95792 68.4900433,221.611805 L67.5093219,221.807216 C67.3784559,221.150432 67.2502121,220.491559 67.1245905,219.830596 Z M67.912195,223.782847 L68.8911194,223.578624 C69.0273561,224.231662 69.1662284,224.882589 69.3077364,225.531404 L68.3307044,225.744497 C68.1885515,225.092725 68.0490484,224.438842 67.912195,223.782847 Z M68.7631325,227.684784 L69.7381826,227.462799 C69.885621,228.11041 70.0357196,228.75589 70.1884783,229.399238 L69.2155293,229.630258 C69.0620554,228.983898 68.9112565,228.335406 68.7631325,227.684784 Z M69.687586,231.577541 L70.6583134,231.337357 C70.8184634,231.984619 70.9813423,232.629696 71.1469501,233.272586 L70.1785637,233.522041 C70.01216,232.876061 69.8485007,232.227894 69.687586,231.577541 Z M70.6876285,235.45947 L71.653556,235.200657 C71.8266577,235.846698 72.0025531,236.490502 72.181242,237.132067 L71.2179087,237.400375 C71.0383386,236.755645 70.8615785,236.108677 70.6876285,235.45947 Z M71.7653552,239.328904 L72.7259763,239.051042 C72.9106973,239.689658 73.0982252,240.326025 73.28856,240.960144 L72.330775,241.247629 C72.1394777,240.610304 71.9510045,239.970729 71.7653552,239.328904 Z M72.9167402,243.164425 L73.8715501,242.867208 C74.0695072,243.503145 74.270328,244.136789 74.4740126,244.768138 L73.5223142,245.075173 C73.3175746,244.440553 73.1157166,243.803637 72.9167402,243.164425 Z M74.1493497,246.984629 L75.097788,246.667667 C75.3091412,247.300095 75.5234104,247.930188 75.7405955,248.557944 L74.7955557,248.8849 C74.5772191,248.253815 74.3618171,247.620391 74.1493497,246.984629 Z M75.4653336,250.787801 L76.4068107,250.450724 C76.6316903,251.078827 76.8595333,251.704556 77.0903398,252.327912 L76.1525587,252.675139 C75.9205008,252.048403 75.6914258,251.41929 75.4653336,250.787801 Z M76.8596393,254.553332 L77.7935766,254.195896 C78.0320408,254.818973 78.2735116,255.439642 78.5179889,256.057904 L77.588053,256.425625 C77.3422218,255.80394 77.0994172,255.179842 76.8596393,254.553332 Z M78.3333602,258.280345 L79.2591601,257.902331 C79.5112385,258.5197 79.7663619,259.134631 80.0245304,259.747123 L79.103044,260.135534 C78.843417,259.519581 78.5868558,258.901185 78.3333602,258.280345 Z M79.8955501,261.986243 L80.8125524,261.587361 C81.078284,262.19826 81.347094,262.806694 81.6189822,263.412664 L80.7066116,263.822029 C80.4331583,263.212571 80.1628045,262.600642 79.8955501,261.986243 Z M81.5400947,265.651257 L82.4476632,265.231353 C82.7270159,265.835138 83.0094754,266.436436 83.2950416,267.035247 L82.3924259,267.465694 C82.1051871,266.863376 81.8210767,266.258563 81.5400947,265.651257 Z M83.2768058,269.292185 L84.1742402,268.851037 C84.4671874,269.446984 84.7632644,270.040426 85.062471,270.631363 L84.1703126,271.083086 C83.8693253,270.488632 83.5714898,269.891665 83.2768058,269.292185 Z M85.0897754,272.872422 L85.9764642,272.410055 C86.2849656,273.001674 86.5966583,273.590738 86.9115422,274.177249 L86.0304889,274.650266 C85.713704,274.060215 85.4001328,273.4676 85.0897754,272.872422 Z M86.9884513,276.409051 L87.8637278,275.925428 C88.1856129,276.507987 88.5107021,277.087981 88.8389953,277.665413 L87.9696728,278.159658 C87.6393724,277.578696 87.3122986,276.995161 86.9884513,276.409051 Z M88.9444849,279.850743 L89.8078585,279.346178 C90.1428706,279.919425 90.4810959,280.490102 90.8225345,281.058209 L89.9654244,281.573342 C89.6218754,281.001724 89.2815623,280.427524 88.9444849,279.850743 Z M91.0168126,283.298304 L91.8674405,282.772536 C92.2177102,283.339229 92.5712367,283.903318 92.9280199,284.464801 L92.0840013,285.001115 C91.7249923,284.436129 91.3692627,283.868525 91.0168126,283.298304 Z M93.1676444,286.683291 L94.0049246,286.136517 C94.3680106,286.692514 94.73435,287.245909 95.103943,287.796703 L94.2735643,288.353902 C93.9016485,287.799647 93.5330085,287.242776 93.1676444,286.683291 Z M95.4079327,290.02158 L96.2312102,289.45394 C96.6091492,290.002086 96.990373,290.547605 97.3748816,291.090499 L96.558828,291.668475 C96.1718893,291.12215 95.7882575,290.573185 95.4079327,290.02158 Z M97.7274676,293.296645 L98.53617,292.708427 C98.9263772,293.244897 99.3198551,293.778753 99.7166037,294.309996 L98.9153866,294.90837 C98.5161214,294.373757 98.1201483,293.836516 97.7274676,293.296645 Z M100.126238,296.508465 L100.919816,295.899996 C101.324298,296.427531 101.732071,296.952437 102.143134,297.474715 L101.357329,298.093189 C100.943654,297.567593 100.53329,297.039351 100.126238,296.508465 Z M102.616335,299.672005 L103.394188,299.04356 C103.812639,299.561494 104.234391,300.07679 104.659446,300.589448 L103.889632,301.227716 C103.461877,300.711801 103.037444,300.19323 102.616335,299.672005 Z M105.186402,302.77165 L105.948034,302.12364 C106.377674,302.628612 106.810585,303.130972 107.246768,303.630719 L106.493373,304.288287 C106.054425,303.785372 105.618768,303.279826 105.186402,302.77165 Z M107.823554,305.793009 L108.568579,305.125973 C109.011371,305.620535 109.457435,306.112484 109.906771,306.60182 L109.170201,307.278181 C108.718027,306.785755 108.269145,306.290698 107.823554,305.793009 Z M110.539879,308.751049 L111.267872,308.065464 C111.723375,308.549143 112.182145,309.030213 112.644183,309.508676 L111.924837,310.203328 C111.459899,309.721862 110.998246,309.237769 110.539879,308.751049 Z M113.33536,311.645755 L114.04593,310.942129 C114.513667,311.414482 114.984659,311.884236 115.458906,312.351393 L114.757146,313.063806 C114.279944,312.59374 113.806016,312.121056 113.33536,311.645755 Z M116.195966,314.463651 L116.888851,313.742602 C117.368296,314.20332 117.85098,314.661454 118.336902,315.117005 L117.652962,315.846543 C117.164042,315.388183 116.678377,314.927219 116.195966,314.463651 Z M119.120544,317.205636 L119.795522,316.467798 C120.286122,316.916602 120.779937,317.36284 121.276969,317.806513 L120.61104,318.552529 C120.110977,318.106149 119.614145,317.657185 119.120544,317.205636 Z M122.122703,319.885464 L122.77951,319.131405 C123.280683,319.56794 123.785043,320.001934 124.292589,320.433387 L123.644908,321.195298 C123.134306,320.761248 122.626904,320.324637 122.122703,319.885464 Z M125.187287,322.490569 L125.825787,321.720947 C126.336915,322.144993 126.851196,322.566526 127.368629,322.985545 L126.7393,323.762684 C126.218797,323.341179 125.701459,322.917141 125.187287,322.490569 Z M128.313151,325.021846 L128.933252,324.237324 C129.453689,324.648688 129.97724,325.05757 130.503903,325.463969 L129.89299,326.255667 C129.363252,325.846895 128.836639,325.435621 128.313151,325.021846 Z M131.483279,327.468226 L132.085021,326.669536 C132.614102,327.068151 133.146252,327.46432 133.681471,327.858041 L133.088906,328.663564 C132.550617,328.267584 132.015408,327.869138 131.483279,327.468226 Z M134.727929,329.854818 L135.31121,329.042547 C135.850686,329.429939 136.39321,329.814901 136.938782,330.197434 L136.364682,331.01622 C135.81604,330.631534 135.270456,330.2444 134.727929,329.854818 Z M138.013854,332.158875 L138.578793,331.333742 C139.125483,331.708041 139.675167,332.079954 140.227844,332.449481 L139.672024,333.280784 C139.116298,332.909219 138.563575,332.535249 138.013854,332.158875 Z M141.355822,334.39324 L141.902479,333.555883 C142.458067,333.918591 143.016615,334.27894 143.578124,334.636929 L143.040537,335.480137 C142.475997,335.120215 141.914425,334.757916 141.355822,334.39324 Z M144.752726,336.558788 L145.281196,335.709835 C145.844873,336.060723 146.411472,336.409282 146.980992,336.755513 L146.461519,337.61 C145.888993,337.261941 145.319395,336.911537 144.752726,336.558788 Z M148.185772,338.645888 L148.69627,337.786009 C149.267224,338.124976 149.841054,338.461651 150.417761,338.796033 L149.916164,339.661135 C149.336484,339.325028 148.759686,338.986613 148.185772,338.645888 Z M151.6528,340.656266 L152.14557,339.786106 C152.722966,340.113084 153.303189,340.437809 153.886241,340.760282 L153.402256,341.635358 C152.816271,341.311263 152.233119,340.984899 151.6528,340.656266 Z M155.170074,342.601571 L155.64529,341.721702 C156.228243,342.036554 156.813969,342.349198 157.402468,342.659632 L156.9359,343.544117 C156.344514,343.23216 155.755905,342.917978 155.170074,342.601571 Z M158.717776,344.472998 L159.175726,343.58402 C159.765679,343.88793 160.358366,344.189661 160.953789,344.489214 L160.504367,345.382533 C159.906097,345.081549 159.310567,344.77837 158.717776,344.472998 Z M162.312899,346.281611 L162.753801,345.384056 C163.349757,345.676804 163.948404,345.96741 164.549742,346.255872 L164.11723,347.1575 C163.513093,346.867695 162.911649,346.575732 162.312899,346.281611 Z M165.818364,347.964495 L166.243069,347.059163 C166.844338,347.341227 167.448251,347.621184 168.05481,347.899033 L167.63835,348.808187 C167.02904,348.529078 166.422378,348.247847 165.818364,347.964495 Z M169.463258,349.634248 L169.871564,348.721403 C170.476884,348.992156 171.084793,349.260846 171.695292,349.527474 L171.29506,350.443887 C170.681868,350.176084 170.071267,349.906204 169.463258,349.634248 Z M173.131001,351.236205 L173.523252,350.316347 C174.13379,350.576696 174.746875,350.835016 175.362507,351.091307 L174.978175,352.014502 C174.359902,351.757111 173.744177,351.497679 173.131001,351.236205 Z M176.840009,352.780294 L177.21647,351.853862 C177.831053,352.103601 178.448132,352.351351 179.067708,352.597113 L178.698995,353.526656 C178.076835,353.27987 177.457173,353.031082 176.840009,352.780294 Z M180.568509,354.259286 L180.929541,353.326733 C181.54913,353.566602 182.171176,353.804514 182.795679,354.040468 L182.442238,354.975925 C181.815204,354.739014 181.190628,354.500135 180.568509,354.259286 Z M184.314519,355.674778 L184.660483,354.736531 C185.283832,354.966381 185.909591,355.194311 186.53776,355.42032 L186.199214,356.36127 C185.568572,356.134371 184.94034,355.90554 184.314519,355.674778 Z M188.097491,357.035865 L188.428671,356.092297 C189.054429,356.311931 189.682543,356.529687 190.313013,356.745567 L189.989066,357.691642 C189.356185,357.474937 188.72566,357.256344 188.097491,357.035865 Z M191.894711,358.336076 L192.211475,357.387572 C192.840311,357.597579 193.471456,357.805747 194.104909,358.012075 L193.795204,358.962908 C193.159398,358.755813 192.5259,358.546869 191.894711,358.336076 Z M195.704252,359.576962 L196.006969,358.623881 C196.639385,358.824749 197.27407,359.023809 197.911023,359.221062 L197.615201,360.176305 C196.97595,359.978341 196.338967,359.77856 195.704252,359.576962 Z M199.524211,360.760057 L199.813245,359.802738 C200.449574,359.994859 201.088134,360.185201 201.728926,360.373764 L201.446629,361.333091 C200.803591,361.143867 200.162786,360.952856 199.524211,360.760057 Z M203.375382,361.893379 L203.651019,360.932117 C204.289484,361.115194 204.930134,361.296529 205.57297,361.476122 L205.303896,362.439242 C204.658873,362.259037 204.016035,362.077083 203.375382,361.893379 Z M207.233842,362.971429 L207.496443,362.006525 C208.137102,362.180881 208.779902,362.353532 209.424844,362.524475 L209.168638,363.491097 C208.521565,363.319589 207.876633,363.146366 207.233842,362.971429 Z M211.121033,364.001706 L211.37088,363.033421 C212.013474,363.199229 212.658166,363.363365 213.304956,363.52583 L213.061338,364.495701 C212.412473,364.332715 211.765704,364.16805 211.121033,364.001706 Z M215.012442,364.979185 L215.249888,364.007784 C215.895723,364.16565 216.543624,364.32187 217.193588,364.476444 L216.962222,365.449311 C216.310232,365.294255 215.660305,365.137546 215.012442,364.979185 Z M218.906255,365.905328 L219.131648,364.93106 C219.778472,365.0807 220.427316,365.22873 221.078178,365.375151 L220.858699,366.350769 C220.205866,366.203904 219.555051,366.055424 218.906255,365.905328 Z M222.800677,366.781576 L223.014359,365.804673 C223.662954,365.946542 224.313531,366.086833 224.966088,366.225545 L224.758167,367.20369 C224.103691,367.064571 223.451194,366.923866 222.800677,366.781576 Z M226.742901,367.619466 L226.945065,366.640115 C227.595481,366.774378 228.247842,366.907091 228.902146,367.038255 L228.705593,368.018748 C228.04942,367.88721 227.395189,367.754116 226.742901,367.619466 Z M230.658601,368.404544 L230.849649,367.422964 C231.50201,367.549935 232.15628,367.675383 232.81246,367.799309 L232.626881,368.781938 C231.968879,368.657668 231.312786,368.53187 230.658601,368.404544 Z M234.595288,369.14809 L234.775474,368.164457 C235.429132,368.284197 236.084664,368.402444 236.742068,368.519197 L236.567207,369.503791 C235.908029,369.386722 235.250722,369.268155 234.595288,369.14809 Z M238.552098,369.850798 L238.721673,368.865281 C239.376794,368.978006 240.033753,369.089265 240.692552,369.199057 L240.528165,370.185453 C239.867638,370.075372 239.208949,369.963821 238.552098,369.850798 Z M242.502544,370.509228 L242.661821,369.521994 C243.318123,369.627879 243.97623,369.732325 244.636143,369.835331 L244.481919,370.823367 C243.820323,370.720098 243.160532,370.615385 242.502544,370.509228 Z M246.470842,371.12865 L246.620059,370.139846 C247.276365,370.238887 247.934438,370.336519 248.594277,370.432743 L248.449974,371.422277 C247.788498,371.325814 247.128788,371.227938 246.470842,371.12865 Z M250.429964,371.706057 L250.569419,370.715829 C251.227342,370.808485 251.887002,370.899756 252.5484,370.989642 L252.413735,371.980533 C251.750742,371.890431 251.089485,371.798939 250.429964,371.706057 Z M254.404709,372.246251 L254.534631,371.254727 C255.193184,371.341019 255.853441,371.425952 256.515403,371.509525 L256.390146,372.50165 C255.72663,372.41788 255.064818,372.332747 254.404709,372.246251 Z M258.367519,372.746648 L258.488193,371.753955 C259.147414,371.834092 259.808308,371.912893 260.470875,371.990361 L260.354746,372.983595 C259.690665,372.905951 259.028256,372.826968 258.367519,372.746648 Z M262.343768,373.211589 L262.455409,372.21784 C263.116016,372.292055 263.778269,372.364957 264.442169,372.436546 L264.33496,373.430782 C263.669584,373.359035 263.005853,373.28597 262.343768,373.211589 Z M266.332647,373.641726 L266.435468,372.647026 C267.096639,372.715371 267.759427,372.782425 268.423831,372.84819 L268.32533,373.843327 C267.659486,373.77742 266.995259,373.710219 266.332647,373.641726 Z M270.333355,374.037705 L270.427562,373.042152 C271.089451,373.104786 271.75293,373.166151 272.417998,373.22625 L272.328001,374.222192 C271.661531,374.161967 270.996649,374.100471 270.333355,374.037705 Z M274.317295,374.397772 L274.403148,373.401465 C275.065221,373.458516 275.728854,373.514324 276.394047,373.568887 L276.312295,374.56554 C275.645736,374.510865 274.980736,374.454942 274.317295,374.397772 Z M278.310952,374.72538 L278.388647,373.728402 C279.051433,373.780054 279.715754,373.830481 280.381608,373.879685 L280.307914,374.876966 C279.640727,374.827664 278.975073,374.777135 278.310952,374.72538 Z M282.313545,375.021154 L282.383272,374.023588 C283.046301,374.069933 283.710837,374.115074 284.376881,374.159014 L284.311053,375.156845 C283.643711,375.11282 282.977875,375.06759 282.313545,375.021154 Z M286.295726,375.283946 L286.357727,374.28587 C287.021197,374.327086 287.686149,374.367118 288.352583,374.405968 L288.294387,375.404274 C287.626685,375.36535 286.960465,375.32524 286.295726,375.283946 Z M290.313615,375.518127 L290.368017,374.519608 C291.031715,374.555768 291.696871,374.590765 292.363484,374.624599 L292.312793,375.623314 C291.644945,375.589416 290.978552,375.554354 290.313615,375.518127 Z M294.309054,375.720963 L294.356086,374.72207 C295.019953,374.753327 295.685253,374.783441 296.351985,374.812413 L296.308573,375.81147 C295.640635,375.782446 294.974129,375.752277 294.309054,375.720963 Z M298.309862,375.894834 L298.349695,374.895628 C299.01392,374.922107 299.679554,374.947462 300.346599,374.971691 L300.310298,375.971032 C299.642078,375.94676 298.975265,375.92136 298.309862,375.894834 Z M302.31529,376.040341 L302.348092,375.040879 C303.012436,375.062683 303.678167,375.08338 304.345284,375.102971 L304.31593,376.10254 C303.647665,376.082916 302.980785,376.062183 302.31529,376.040341 Z M306.324597,376.158081 L306.35053,375.158418 C306.633356,375.165755 306.916429,375.172895 307.199749,375.179838 L307.175251,376.179537 C306.891453,376.172583 306.607901,376.165431 306.324597,376.158081 Z" fill="#323232" fill-rule="nonzero"></path>
                <text id="Update-track-dates" font-family="Roboto-Regular, Roboto" font-size="9" font-weight="normal" fill="#222222">
                    <tspan x="750.60498" y="414">Update track dates</tspan>
                </text>
                <path d="M465.5,349 C465.5,348.745704 465.205995,348.5 464.803419,348.5 L328.393162,348.5 C327.990587,348.5 327.696581,348.745704 327.696581,349 L327.696581,403 C327.696581,403.254296 327.990587,403.5 328.393162,403.5 L464.803419,403.5 C465.205995,403.5 465.5,403.254296 465.5,403 L465.5,349 Z" id="Rectangle-3" stroke="#323232"></path>
                <path id="Path-11" d="M154.986348,493.675686 L150.662626,484.589685 L159.660916,484.765107 L154.986348,493.675686 Z M304.805464,376.305714 L304.741411,377.303661 C304.072922,377.260755 303.406679,377.219877 302.742682,377.181029 L302.801088,376.182736 C303.466971,376.221695 304.135096,376.262687 304.805464,376.305714 Z M300.801395,376.071501 L300.748741,377.070114 C300.081244,377.034919 299.416047,377.001802 298.753152,376.970765 L298.799922,375.971859 C299.464783,376.002989 300.13194,376.036203 300.801395,376.071501 Z M296.808143,375.884555 L296.767355,376.883723 C296.101753,376.856552 295.438505,376.831506 294.777608,376.808585 L294.812269,375.809186 C295.475212,375.832178 296.140503,375.857301 296.808143,375.884555 Z M292.802001,375.745794 L292.773648,376.745392 C292.105549,376.726442 291.439889,376.709696 290.776668,376.695152 L290.798591,375.695393 C291.463959,375.709983 292.131762,375.726784 292.802001,375.745794 Z M288.785889,375.657884 L288.770571,376.657767 C288.1013,376.647514 287.43455,376.639539 286.770321,376.633841 L286.778899,375.633878 C287.445378,375.639595 288.114375,375.647597 288.785889,375.657884 Z M284.779275,375.623567 L284.777566,376.623565 C284.10835,376.622422 283.441732,376.623626 282.777715,376.627177 L282.772367,375.627192 C283.438741,375.623628 284.10771,375.62242 284.779275,375.623567 Z M280.768167,375.645111 L280.780728,376.645032 C280.112864,376.653421 279.447672,376.664223 278.785151,376.677437 L278.76521,375.677636 C279.430196,375.664373 280.097848,375.653531 280.768167,375.645111 Z M276.771608,375.724872 L276.799071,376.724495 C276.128983,376.742904 275.461673,376.763822 274.797141,376.787247 L274.761912,375.787868 C275.429037,375.764351 276.098936,375.743352 276.771608,375.724872 Z M272.760468,375.866334 L272.80362,376.865403 C272.137588,376.89417 271.474395,376.9255 270.81404,376.959392 L270.762784,375.960706 C271.425845,375.926676 272.09174,375.895218 272.760468,375.866334 Z M268.754147,376.072185 L268.813753,377.070407 C268.14857,377.110126 267.486319,377.152491 266.826999,377.197502 L266.758889,376.199824 C267.421049,376.15462 268.086135,376.112073 268.754147,376.072185 Z M264.75585,376.345362 L264.832711,377.342404 C264.165626,377.393829 263.501596,377.448012 262.840622,377.504951 L262.754795,376.508641 C263.418762,376.451444 264.085781,376.397017 264.75585,376.345362 Z M260.768833,376.688854 L260.863786,377.684335 C260.200757,377.747578 259.54086,377.813647 258.884097,377.882542 L258.779768,376.887999 C259.439662,376.818776 260.102683,376.752394 260.768833,376.688854 Z M256.767147,377.10905 L256.88121,378.102524 C256.215966,378.178902 255.554,378.258237 254.895313,378.340528 L254.771344,377.348242 C255.433338,377.265537 256.098606,377.185807 256.767147,377.10905 Z M252.784543,377.606719 L252.918634,378.597688 C252.257072,378.687206 251.598885,378.779767 250.944072,378.875371 L250.799601,377.885862 C251.457879,377.789752 252.119527,377.696705 252.784543,377.606719 Z M248.838502,378.182811 L248.993498,379.170726 C248.333587,379.274261 247.677175,379.380951 247.024262,379.490796 L246.858355,378.504655 C247.514909,378.394197 248.174958,378.286916 248.838502,378.182811 Z M244.876604,378.849618 L245.053724,379.833807 C244.397761,379.951858 243.745407,380.073162 243.096664,380.197722 L242.908107,379.215659 C243.560667,379.090367 244.216833,378.968354 244.876604,378.849618 Z M240.931982,379.607351 L241.132329,380.587076 C240.479023,380.720673 239.829462,380.857646 239.183646,380.997995 L238.971282,380.020804 C239.621107,379.879584 240.274674,379.741766 240.931982,379.607351 Z M237.009165,380.460174 L237.233877,381.434599 C236.582348,381.584848 235.934723,381.738615 235.291001,381.895899 L235.053648,380.924475 C235.701586,380.766161 236.353425,380.611394 237.009165,380.460174 Z M233.099934,381.415643 L233.350258,382.383805 C232.703168,382.551114 232.060121,382.722066 231.421117,382.89666 L231.157549,381.932019 C231.80097,381.756218 232.448432,381.584093 233.099934,381.415643 Z M229.234967,382.471731 L229.511994,383.432593 C228.871713,383.617193 228.235596,383.805545 227.603642,383.997648 L227.3128,383.040877 C227.949359,382.847374 228.590081,382.657658 229.234967,382.471731 Z M225.38152,383.643667 L225.686612,384.59599 C225.050306,384.799841 224.418337,385.007599 223.790705,385.219263 L223.471145,384.271697 C224.103598,384.058407 224.74039,383.849063 225.38152,383.643667 Z M221.570154,384.929315 L221.904487,385.871769 C221.275066,386.095055 220.650131,386.322381 220.029681,386.553748 L219.680282,385.616774 C220.30575,385.383536 220.935707,385.154383 221.570154,384.929315 Z M217.805854,386.333243 L218.170576,387.26436 C217.550836,387.507114 216.935704,387.754019 216.32518,388.005075 L215.944866,387.080218 C216.560581,386.827027 217.18091,386.578036 217.805854,386.333243 Z M214.082513,387.864922 L214.478816,388.783042 C213.86699,389.047133 213.259937,389.315524 212.657656,389.588214 L212.2452,388.677236 C212.852855,388.402113 213.465293,388.131342 214.082513,387.864922 Z M210.406338,389.530018 L210.835341,390.433321 C210.234669,390.718596 209.6389,391.008289 209.048034,391.302399 L208.602425,390.407171 C209.198812,390.110313 209.800116,389.817929 210.406338,389.530018 Z M206.846546,391.301505 L207.30867,392.18832 C206.717519,392.496373 206.131439,392.808995 205.550431,393.126188 L205.071254,392.248469 C205.657927,391.928184 206.249691,391.61253 206.846546,391.301505 Z M203.322165,393.225698 L203.818485,394.093837 C203.240554,394.424244 202.667818,394.759336 202.10028,395.099112 L201.586615,394.241121 C202.15991,393.897899 202.738427,393.559425 203.322165,393.225698 Z M199.871143,395.292083 L200.40227,396.139375 C199.838974,396.492478 199.28099,396.850371 198.728317,397.213054 L198.17967,396.377 C198.738152,396.010505 199.301976,395.648866 199.871143,395.292083 Z M196.49902,397.505637 L197.065362,398.329808 C196.516711,398.706822 195.973503,399.088745 195.435737,399.475579 L194.851788,398.663789 C195.395386,398.27276 195.944463,397.88671 196.49902,397.505637 Z M193.22948,399.857801 L193.831013,400.656649 C193.30021,401.056345 192.774929,401.461025 192.255172,401.870691 L191.63615,401.085317 C192.161694,400.671091 192.692804,400.261919 193.22948,399.857801 Z M190.065986,402.351602 L190.702436,403.12292 C190.189728,403.545978 189.682631,403.974102 189.181142,404.407293 L188.527447,403.650535 C189.034634,403.212422 189.54748,402.779444 190.065986,402.351602 Z M187.020311,404.982589 L187.691041,405.724291 C187.199409,406.16888 186.713415,406.618565 186.23306,407.073347 L185.545547,406.347174 C186.031441,405.887149 186.523029,405.432287 187.020311,404.982589 Z M184.094845,407.75276 L184.798954,408.462852 C184.327736,408.9301 183.862207,409.402495 183.402367,409.880038 L182.682035,409.186408 C183.14722,408.703315 183.618157,408.225432 184.094845,407.75276 Z M181.299497,410.655932 L182.035739,411.33265 C181.58678,411.8211 181.143521,412.31471 180.705963,412.813482 L179.954233,412.154011 C180.396887,411.64943 180.845308,411.15007 181.299497,410.655932 Z M178.635521,413.69304 L179.402418,414.33481 C178.97749,414.842587 178.55823,415.355499 178.144638,415.873547 L177.363146,415.249631 C177.781533,414.725577 178.205658,414.206713 178.635521,413.69304 Z M176.124394,416.83842 L176.920034,417.44419 C176.518816,417.971163 176.123236,418.503247 175.733293,419.040443 L174.924024,418.453006 C175.318438,417.90965 175.718561,417.371455 176.124394,416.83842 Z M173.751175,420.108291 L174.573665,420.677071 C174.197215,421.221441 173.826336,421.770866 173.46103,422.325349 L172.625969,421.775191 C172.995393,421.214459 173.370462,420.658826 173.751175,420.108291 Z M171.533879,423.473882 L172.381015,424.005258 C172.029431,424.565764 171.683338,425.131255 171.342734,425.701732 L170.484126,425.1891 C170.828481,424.61234 171.178398,424.0406 171.533879,423.473882 Z M169.463527,426.941882 L170.333144,427.435609 C170.006349,428.011204 169.684951,428.591702 169.368951,429.177105 L168.488972,428.702093 C168.808355,428.110423 169.133207,427.523686 169.463527,426.941882 Z M167.548356,430.489699 L168.438182,430.945999 C168.136201,431.534889 167.839503,432.12858 167.548088,432.727074 L166.649004,432.289298 C166.943437,431.684606 167.243221,431.08474 167.548356,430.489699 Z M165.783905,434.113207 L166.691738,434.532539 C166.414436,435.132882 166.142284,435.737908 165.875281,436.347616 L164.959265,435.946476 C165.22893,435.330686 165.50381,434.719596 165.783905,434.113207 Z M164.165746,437.808341 L165.089483,438.191368 C164.836355,438.80183 164.588235,439.416847 164.345122,440.036419 L163.414222,439.671144 C163.659662,439.045643 163.91017,438.424708 164.165746,437.808341 Z M162.693642,441.559904 L163.631264,441.907561 C163.401324,442.527701 163.176257,443.152273 162.956062,443.781278 L162.012224,443.450871 C162.234434,442.816108 162.461573,442.185785 162.693642,441.559904 Z M161.358391,445.374514 L162.308059,445.687771 C162.100965,446.315595 161.898592,446.947714 161.700938,447.584127 L160.745936,447.287529 C160.945315,446.645558 161.149467,446.007886 161.358391,445.374514 Z M160.207544,449.07104 L161.167128,449.352462 C160.981097,449.986785 160.799641,450.62527 160.62276,451.267919 L159.658613,451.00255 C159.836967,450.354549 160.019944,449.710712 160.207544,449.07104 Z M159.140502,452.94709 L160.10885,453.196694 C159.943781,453.837083 159.783142,454.481501 159.626931,455.12995 L158.654742,454.89575 C158.81219,454.242168 158.97411,453.592614 159.140502,452.94709 Z M158.197749,456.859972 L159.173459,457.079037 C159.028644,457.724044 158.888104,458.372941 158.75184,459.025729 L157.77294,458.821392 C157.910227,458.163698 158.051831,457.509891 158.197749,456.859972 Z M157.37667,460.792437 L158.35847,460.982355 C158.232838,461.631824 158.11134,462.285055 157.993976,462.942047 L157.00956,462.766193 C157.12776,462.104517 157.25013,461.446598 157.37667,460.792437 Z M156.671303,464.739155 L157.658067,464.901315 C157.550832,465.553853 157.447586,466.210018 157.348327,466.869812 L156.359455,466.721047 C156.459384,466.056794 156.563333,465.396163 156.671303,464.739155 Z M156.072165,468.721476 L157.062929,468.857076 C156.973227,469.512489 156.887375,470.171404 156.805375,470.833821 L155.81295,470.71097 C155.895476,470.044309 155.98188,469.381145 156.072165,468.721476 Z M155.579919,472.695271 L156.573799,472.805742 C156.500703,473.463368 156.431325,474.124375 156.365665,474.788762 L155.370513,474.690413 C155.436572,474.021992 155.506374,473.356945 155.579919,472.695271 Z M155.1844,476.696196 L156.180654,476.782679 C156.123417,477.442026 156.069769,478.104635 156.01971,478.770507 L155.022524,478.69554 C155.072871,478.025836 155.12683,477.359388 155.1844,476.696196 Z M154.882801,480.70684 L155.880771,480.770525 C155.83862,481.431052 155.799932,482.094728 155.764709,482.761552 L154.766101,482.708803 C154.801517,482.03834 154.840417,481.371019 154.882801,480.70684 Z" fill="#323232" fill-rule="nonzero"></path>
                <rect id="Rectangle-3" stroke="#323232" transform="translate(509.000000, 36.000000) rotate(-225.000000) translate(-509.000000, -36.000000) " x="484.5" y="11.5" width="49" height="49" rx="1"></rect>
                <text id="Most-common-initial" font-family="Roboto-Regular, Roboto" font-size="9" font-weight="normal" fill="#686868">
                    <tspan x="1" y="83">Most common initial subtasks </tspan>
                    <tspan x="1" y="94">include  MSA doc signature and </tspan>
                    <tspan x="1" y="105">customized tagging integration </tspan>
                    <tspan x="1" y="116">documentation upload</tspan>
                </text>
                <text id="Additionally,-an-aut" font-family="Roboto-Regular, Roboto" font-size="9" font-weight="normal" fill="#686868">
                    <tspan x="210" y="251">Additionally, an auto </tspan>
                    <tspan x="210" y="262">generated  email </tspan>
                    <tspan x="210" y="273">notification would be sent. </tspan>
                </text>
                <path d="M529.5,267.55303 L529.5,339.44697" id="Line-4" stroke="#323232" stroke-linecap="square" transform="translate(529.500000, 303.500000) scale(-1, -1) translate(-529.500000, -303.500000) "></path>
                <path d="M552.5,411.5 L530.5,411.5" id="Line-3" stroke="#979797" stroke-linecap="square"></path>
                <path d="M718.5,412.5 L700.5,412.5" id="Line-3" stroke="#424242" stroke-linecap="square"></path>
                <path d="M858.5,384 C858.5,383.746825 858.202108,383.5 857.793103,383.5 L720.206897,383.5 C719.797892,383.5 719.5,383.746825 719.5,384 L719.5,438 C719.5,438.253175 719.797892,438.5 720.206897,438.5 L857.793103,438.5 C858.202108,438.5 858.5,438.253175 858.5,438 L858.5,384 Z" id="Rectangle-3" stroke="#323232"></path>
                <path d="M529.5,337.568182 L529.5,411.431818" id="Line-4" stroke="#323232" stroke-linecap="square" transform="translate(529.500000, 374.500000) scale(-1, -1) translate(-529.500000, -374.500000) "></path>
                <path d="M508.5,70.5147059 L508.5,104.485294" id="Line-5" stroke="#535353" stroke-linecap="square"></path>
                <path d="M394.082569,105.495098 L627.917431,105.495098" id="Line-5" stroke="#535353" stroke-linecap="square"></path>
                <text id="Proceeds-to-1.2-a-or" font-family="Roboto-Medium, Roboto" font-size="10" font-weight="400" fill="#222222">
                    <tspan x="436.251953" y="584">Proceeds to 1.2 a </tspan>
                    <tspan x="458.534668" y="597">or 1.2 b</tspan>
                </text>
                <text id="Proceeds-to-1.2-c" font-family="Roboto-Medium, Roboto" font-size="10" font-weight="400" fill="#222222">
                    <tspan x="109.347168" y="517">Proceeds to 1.2 c</tspan>
                </text>
                <path d="M789.5,439.233553 L789.5,509.766447" id="Line-6" stroke="#535353" stroke-linecap="square" stroke-dasharray="2,2,2,2"></path>
                <path d="M475.5,509.5 L791.5,509.5" id="Line-6" stroke="#535353" stroke-linecap="square" stroke-dasharray="2,2,2,2"></path>
            </g>
        </g>
    </g>
</svg>