<?xml version="1.0" encoding="UTF-8"?>
<svg width="194px" height="195px" viewBox="0 0 194 195" version="1.1" xmlns="http://www.w3.org/2000/svg" xmlns:xlink="http://www.w3.org/1999/xlink">
    <!-- Generator: Sketch 52 (66869) - http://www.bohemiancoding.com/sketch -->
    <title>Group 2</title>
    <desc>Created with Sketch.</desc>
    <defs>
        <linearGradient x1="53.1023451%" y1="100%" x2="50%" y2="43.2050953%" id="linearGradient-1">
            <stop stop-color="#FBB795" offset="0%"></stop>
            <stop stop-color="#E5A282" offset="98.1552565%"></stop>
        </linearGradient>
        <linearGradient x1="50%" y1="-2.48949813e-15%" x2="50%" y2="100%" id="linearGradient-2">
            <stop stop-color="#FCD0BB" offset="0%"></stop>
            <stop stop-color="#EDAA8A" offset="100%"></stop>
        </linearGradient>
        <linearGradient x1="50%" y1="0%" x2="50%" y2="100%" id="linearGradient-3">
            <stop stop-color="#ECCD59" offset="0%"></stop>
            <stop stop-color="#D3A92D" offset="100%"></stop>
        </linearGradient>
    </defs>
    <g id="onboarding-dash" stroke="none" stroke-width="1" fill="none" fill-rule="evenodd">
        <g id="landingpage" transform="translate(-423.000000, -1735.000000)">
            <g id="Group-2" transform="translate(423.000000, 1735.299603)">
                <ellipse id="Oval-4" fill="#F2F0EC" cx="97" cy="97.0167501" rx="97" ry="97.0167501"></ellipse>
                <polygon id="Rectangle-3" fill="url(#linearGradient-1)" points="83 96.0165774 114 96.0165774 114 144.024866 83 144.024866"></polygon>
                <path d="M46.8532364,144.024866 C39.9613848,138.89457 52.291697,129.559625 83.8441729,116.020031 L98.9504459,143.518247 C98.9806153,143.573164 98.9758428,143.640658 98.9382456,143.690784 L98.9382456,143.690784 C98.9358496,143.693979 98.9313176,143.694626 98.9281232,143.69223 C98.9252412,143.690068 98.9243902,143.686115 98.9261277,143.682959 L114.155827,116.020031 C145.708303,129.559625 158.038615,138.89457 151.146764,144.024866" id="Path-6" fill="#4A90E2"></path>
                <path d="M98.641493,115.019858 C112.474915,115.019858 121,99.3687138 121,82.8745242 C121,66.3803347 111.92893,53.0091521 98.641493,53.0091521 C85.3540556,53.0091521 76,66.3803347 76,82.8745242 C76,99.3687138 84.8080707,115.019858 98.641493,115.019858 Z" id="Oval-3" fill="url(#linearGradient-2)"></path>
                <path d="M87.6984094,74.6942984 L101.63612,54.9334697 C118.433463,63.9748288 122.557152,80.9765739 114.007185,105.938705 C114.007185,112.820703 114.007185,116.261702 114.007185,116.261702 L134.344238,125.839598 C131.696486,68.9590088 120.066278,40.5187144 99.4536133,40.5187144 C68.5346164,40.5187144 65.9592832,63.9716739 62.5831744,77.4549229 C59.2070657,90.9381719 50.2073852,103.574008 47,94.6519141 C52.0660742,101.673361 57.2604657,102.393829 62.5831744,96.8133183 C70.5672375,88.4425529 60.3752466,108.181426 52.1274507,108.181426 C59.4856151,109.676573 64.0962259,109.676573 65.9592832,108.181426 C62.7697282,113.568277 59.8612226,115.753835 57.2337664,114.738099 C58.880194,121.593757 61.1318244,125.021585 63.9886578,125.021585 L82.1497394,116.649674 C85.8488527,115.736472 86.0756057,112.166149 82.8299983,105.938705 C79.584391,99.7112612 77.6384047,94.2034397 76.9920395,89.4152403 L76.2596262,79.6169368 C77.3942669,70.5394488 79.584391,68.8985693 82.8299983,74.6942984 L86.3518973,68.4955084 L87.6984094,74.6942984 Z" id="Path-7" fill="url(#linearGradient-3)"></path>
            </g>
        </g>
    </g>
</svg>