<svg version="1.1" id="els2_x5F_transport" xmlns="http://www.w3.org/2000/svg" xmlns:xlink="http://www.w3.org/1999/xlink" x="0px"
y="0px" viewBox="0 0 40 40" style="enable-background:new 0 0 40 40;" xml:space="preserve">
<style type="text/css">
.st0{fill:none;stroke:#FFFFFF;stroke-width:1.33;stroke-miterlimit:10;}
</style>
<path class="st0" d="M30.1,22.4c-0.4,0.4-0.7,0.7-1.1,1l0.3,3.2c0.2,2.1-0.7,4-2.4,5.1L19,37.1l-0.7-8.7c-1.8-0.1-3.4-0.7-4.7-1.9
c-1.2-1.2-1.8-2.8-1.9-4.6l-8.5-0.5l5-7.9c1.1-1.8,3.1-2.8,5.2-2.5l3.1,0.3c0.3-0.4,0.7-0.7,1.1-1.1C24,3.6,34.1,2.4,36.7,3.3
C37.6,6,36.5,16,30.1,22.4z M29.6,10.4c-1.5-1.5-3.9-1.5-5.3,0c-1.5,1.5-1.5,3.9,0,5.3c1.5,1.5,3.9,1.5,5.3,0
C31.1,14.3,31.1,11.9,29.6,10.4z M15.9,31.1L11,36.1v-3.5l-5.3,1.8L7.4,29H3.9L8.8,24"/>
</svg>